<?xml version="1.0" encoding="utf-8" standalone="no"?>
<!DOCTYPE svg PUBLIC "-//W3C//DTD SVG 1.1//EN"
  "http://www.w3.org/Graphics/SVG/1.1/DTD/svg11.dtd">
<!-- Created with matplotlib (https://matplotlib.org/) -->
<svg height="459.804062pt" version="1.1" viewBox="0 0 532.693594 459.804062" width="532.693594pt" xmlns="http://www.w3.org/2000/svg" xmlns:xlink="http://www.w3.org/1999/xlink">
 <metadata>
  <rdf:RDF xmlns:cc="http://creativecommons.org/ns#" xmlns:dc="http://purl.org/dc/elements/1.1/" xmlns:rdf="http://www.w3.org/1999/02/22-rdf-syntax-ns#">
   <cc:Work>
    <dc:type rdf:resource="http://purl.org/dc/dcmitype/StillImage"/>
    <dc:date>2023-09-08T20:32:58.065261</dc:date>
    <dc:format>image/svg+xml</dc:format>
    <dc:creator>
     <cc:Agent>
      <dc:title>Matplotlib v3.3.1, https://matplotlib.org/</dc:title>
     </cc:Agent>
    </dc:creator>
   </cc:Work>
  </rdf:RDF>
 </metadata>
 <defs>
  <style type="text/css">*{stroke-linecap:butt;stroke-linejoin:round;}</style>
 </defs>
 <g id="figure_1">
  <g id="patch_1">
   <path d="M 0 459.804062 
L 532.693594 459.804062 
L 532.693594 0 
L 0 0 
z
" style="fill:#ffffff;"/>
  </g>
  <g id="axes_1">
   <g id="patch_2">
    <path d="M 53.343594 412.037187 
L 525.493594 412.037187 
L 525.493594 24.457187 
L 53.343594 24.457187 
z
" style="fill:#ffffff;"/>
   </g>
   <g id="matplotlib.axis_1">
    <g id="xtick_1">
     <g id="line2d_1">
      <path clip-path="url(#p985a01577a)" d="M 78.193594 412.037187 
L 78.193594 24.457187 
" style="fill:none;stroke:#dedede;stroke-dasharray:2.96,1.28;stroke-dashoffset:0;stroke-width:0.8;"/>
     </g>
     <g id="line2d_2">
      <defs>
       <path d="M 0 0 
L 0 5 
" id="m7bb4b32df3" style="stroke:#000000;stroke-width:2;"/>
      </defs>
      <g>
       <use style="stroke:#000000;stroke-width:2;" x="78.193594" xlink:href="#m7bb4b32df3" y="412.037187"/>
      </g>
     </g>
     <g id="text_1">
      <!-- 1 -->
      <g transform="translate(74.443594 430.47)scale(0.15 -0.15)">
       <defs>
        <path d="M 32.5625 67.578125 
L 32.5625 13.421875 
Q 32.5625 7.328125 33.09375 5.640625 
Q 33.640625 3.953125 35.34375 2.875 
Q 37.0625 1.8125 40.828125 1.8125 
L 42.328125 1.8125 
L 42.328125 0 
L 7.46875 0 
L 7.46875 1.8125 
L 9.234375 1.8125 
Q 13.484375 1.8125 15.28125 2.78125 
Q 17.09375 3.765625 17.71875 5.46875 
Q 18.359375 7.171875 18.359375 13.421875 
L 18.359375 47.75 
Q 18.359375 52.34375 17.921875 53.484375 
Q 17.484375 54.640625 16.28125 55.4375 
Q 15.09375 56.25 13.53125 56.25 
Q 11.03125 56.25 7.46875 54.6875 
L 6.59375 56.453125 
L 30.953125 67.578125 
z
" id="TimesNewRomanPS-BoldMT-49"/>
       </defs>
       <use xlink:href="#TimesNewRomanPS-BoldMT-49"/>
      </g>
     </g>
    </g>
    <g id="xtick_2">
     <g id="line2d_3">
      <path clip-path="url(#p985a01577a)" d="M 152.743594 412.037187 
L 152.743594 24.457187 
" style="fill:none;stroke:#dedede;stroke-dasharray:2.96,1.28;stroke-dashoffset:0;stroke-width:0.8;"/>
     </g>
     <g id="line2d_4">
      <g>
       <use style="stroke:#000000;stroke-width:2;" x="152.743594" xlink:href="#m7bb4b32df3" y="412.037187"/>
      </g>
     </g>
     <g id="text_2">
      <!-- 4 -->
      <g transform="translate(148.993594 430.47)scale(0.15 -0.15)">
       <defs>
        <path d="M 2.484375 24.953125 
L 33.9375 67.578125 
L 39.890625 67.578125 
L 39.890625 24.953125 
L 45.953125 24.953125 
L 45.953125 14.84375 
L 39.890625 14.84375 
L 39.890625 0 
L 26.46875 0 
L 26.46875 14.84375 
L 2.484375 14.84375 
z
M 7.234375 24.953125 
L 26.46875 24.953125 
L 26.46875 51.078125 
z
" id="TimesNewRomanPS-BoldMT-52"/>
       </defs>
       <use xlink:href="#TimesNewRomanPS-BoldMT-52"/>
      </g>
     </g>
    </g>
    <g id="xtick_3">
     <g id="line2d_5">
      <path clip-path="url(#p985a01577a)" d="M 227.293594 412.037187 
L 227.293594 24.457187 
" style="fill:none;stroke:#dedede;stroke-dasharray:2.96,1.28;stroke-dashoffset:0;stroke-width:0.8;"/>
     </g>
     <g id="line2d_6">
      <g>
       <use style="stroke:#000000;stroke-width:2;" x="227.293594" xlink:href="#m7bb4b32df3" y="412.037187"/>
      </g>
     </g>
     <g id="text_3">
      <!-- 7 -->
      <g transform="translate(223.543594 430.47)scale(0.15 -0.15)">
       <defs>
        <path d="M 17.71875 -1.375 
L 35.75 53.265625 
L 22.015625 53.265625 
Q 13.96875 53.265625 9.90625 51.171875 
Q 7.078125 49.703125 5.21875 45.65625 
L 3.375 45.65625 
L 8.15625 66.21875 
L 47.609375 66.21875 
L 25.390625 -1.375 
z
" id="TimesNewRomanPS-BoldMT-55"/>
       </defs>
       <use xlink:href="#TimesNewRomanPS-BoldMT-55"/>
      </g>
     </g>
    </g>
    <g id="xtick_4">
     <g id="line2d_7">
      <path clip-path="url(#p985a01577a)" d="M 301.843594 412.037187 
L 301.843594 24.457187 
" style="fill:none;stroke:#dedede;stroke-dasharray:2.96,1.28;stroke-dashoffset:0;stroke-width:0.8;"/>
     </g>
     <g id="line2d_8">
      <g>
       <use style="stroke:#000000;stroke-width:2;" x="301.843594" xlink:href="#m7bb4b32df3" y="412.037187"/>
      </g>
     </g>
     <g id="text_4">
      <!-- 10 -->
      <g transform="translate(294.343594 430.47)scale(0.15 -0.15)">
       <defs>
        <path d="M 46.34375 33.109375 
Q 46.34375 23.1875 43.5625 14.59375 
Q 41.890625 9.328125 39.078125 5.953125 
Q 36.28125 2.59375 32.71875 0.609375 
Q 29.15625 -1.375 24.953125 -1.375 
Q 20.171875 -1.375 16.3125 1.0625 
Q 12.453125 3.515625 9.46875 8.0625 
Q 7.328125 11.375 5.71875 16.890625 
Q 3.609375 24.359375 3.609375 32.328125 
Q 3.609375 43.109375 6.640625 52.15625 
Q 9.125 59.625 14.203125 63.59375 
Q 19.28125 67.578125 24.953125 67.578125 
Q 30.71875 67.578125 35.71875 63.640625 
Q 40.71875 59.71875 43.0625 53.078125 
Q 46.34375 43.953125 46.34375 33.109375 
z
M 31.296875 33.203125 
Q 31.296875 50.59375 31.109375 53.46875 
Q 30.609375 60.25 28.765625 62.640625 
Q 27.546875 64.203125 24.8125 64.203125 
Q 22.703125 64.203125 21.484375 63.03125 
Q 19.671875 61.328125 19.03125 57 
Q 18.40625 52.6875 18.40625 26.859375 
Q 18.40625 12.796875 19.390625 8.015625 
Q 20.125 4.546875 21.484375 3.375 
Q 22.859375 2.203125 25.09375 2.203125 
Q 27.546875 2.203125 28.765625 3.765625 
Q 30.8125 6.5 31.109375 12.203125 
z
" id="TimesNewRomanPS-BoldMT-48"/>
       </defs>
       <use xlink:href="#TimesNewRomanPS-BoldMT-49"/>
       <use x="50" xlink:href="#TimesNewRomanPS-BoldMT-48"/>
      </g>
     </g>
    </g>
    <g id="xtick_5">
     <g id="line2d_9">
      <path clip-path="url(#p985a01577a)" d="M 376.393594 412.037187 
L 376.393594 24.457187 
" style="fill:none;stroke:#dedede;stroke-dasharray:2.96,1.28;stroke-dashoffset:0;stroke-width:0.8;"/>
     </g>
     <g id="line2d_10">
      <g>
       <use style="stroke:#000000;stroke-width:2;" x="376.393594" xlink:href="#m7bb4b32df3" y="412.037187"/>
      </g>
     </g>
     <g id="text_5">
      <!-- 13 -->
      <g transform="translate(368.893594 430.47)scale(0.15 -0.15)">
       <defs>
        <path d="M 14.796875 33.203125 
L 14.796875 34.90625 
Q 20.359375 36.53125 22.5 37.921875 
Q 24.65625 39.3125 26.21875 42.15625 
Q 27.78125 45.015625 27.78125 47.953125 
Q 27.78125 52 24.828125 54.90625 
Q 21.875 57.8125 17.484375 57.8125 
Q 10.640625 57.8125 5.859375 50.59375 
L 4.046875 51.21875 
Q 7.5625 59.375 13.0625 63.46875 
Q 18.5625 67.578125 25.296875 67.578125 
Q 32.171875 67.578125 36.640625 63.375 
Q 41.109375 59.1875 41.109375 53.5625 
Q 41.109375 49.90625 39.03125 46.5 
Q 36.96875 43.109375 32.515625 40.53125 
Q 38.234375 37.75 41.234375 33.671875 
Q 44.234375 29.59375 44.234375 23.4375 
Q 44.234375 13.09375 36.734375 5.828125 
Q 29.25 -1.421875 16.65625 -1.421875 
Q 8.25 -1.421875 4.390625 1.375 
Q 1.609375 3.328125 1.609375 6.390625 
Q 1.609375 8.640625 3.21875 10.21875 
Q 4.828125 11.8125 6.9375 11.8125 
Q 8.546875 11.8125 9.96875 11.140625 
Q 10.75 10.75 15.5 6.859375 
Q 20.265625 2.984375 24.421875 2.984375 
Q 28.03125 2.984375 30.609375 5.828125 
Q 33.203125 8.6875 33.203125 13.09375 
Q 33.203125 19.78125 28.515625 25.421875 
Q 23.828125 31.0625 14.796875 33.203125 
z
" id="TimesNewRomanPS-BoldMT-51"/>
       </defs>
       <use xlink:href="#TimesNewRomanPS-BoldMT-49"/>
       <use x="50" xlink:href="#TimesNewRomanPS-BoldMT-51"/>
      </g>
     </g>
    </g>
    <g id="xtick_6">
     <g id="line2d_11">
      <path clip-path="url(#p985a01577a)" d="M 450.943594 412.037187 
L 450.943594 24.457187 
" style="fill:none;stroke:#dedede;stroke-dasharray:2.96,1.28;stroke-dashoffset:0;stroke-width:0.8;"/>
     </g>
     <g id="line2d_12">
      <g>
       <use style="stroke:#000000;stroke-width:2;" x="450.943594" xlink:href="#m7bb4b32df3" y="412.037187"/>
      </g>
     </g>
     <g id="text_6">
      <!-- 16 -->
      <g transform="translate(443.443594 430.47)scale(0.15 -0.15)">
       <defs>
        <path d="M 46.96875 67.578125 
L 46.96875 66.21875 
Q 38.140625 63.96875 32.78125 60.421875 
Q 27.4375 56.890625 24.328125 51.828125 
Q 21.234375 46.78125 19.53125 39.3125 
Q 21.6875 40.765625 23.09375 41.21875 
Q 26.265625 42.1875 29.5 42.1875 
Q 36.921875 42.1875 41.875 36.78125 
Q 46.828125 31.390625 46.828125 22.078125 
Q 46.828125 15.53125 44.140625 10.0625 
Q 41.453125 4.59375 36.515625 1.609375 
Q 31.59375 -1.375 25.984375 -1.375 
Q 19.875 -1.375 14.6875 1.96875 
Q 9.515625 5.328125 6.609375 11.765625 
Q 3.71875 18.21875 3.71875 25.78125 
Q 3.71875 36.921875 9.0625 46.515625 
Q 14.40625 56.109375 24.234375 61.796875 
Q 34.078125 67.484375 46.96875 67.578125 
z
M 18.890625 35.359375 
Q 18.5 28.609375 18.5 25.484375 
Q 18.5 18.75 19.796875 12.453125 
Q 21.09375 6.15625 23.34375 3.609375 
Q 24.953125 1.8125 27.15625 1.8125 
Q 29.390625 1.8125 31.140625 4.421875 
Q 32.90625 7.03125 32.90625 15.046875 
Q 32.90625 28.515625 29.640625 33.640625 
Q 27.546875 36.96875 23.96875 36.96875 
Q 22.015625 36.96875 18.890625 35.359375 
z
" id="TimesNewRomanPS-BoldMT-54"/>
       </defs>
       <use xlink:href="#TimesNewRomanPS-BoldMT-49"/>
       <use x="50" xlink:href="#TimesNewRomanPS-BoldMT-54"/>
      </g>
     </g>
    </g>
    <g id="xtick_7">
     <g id="line2d_13">
      <path clip-path="url(#p985a01577a)" d="M 103.043594 412.037187 
L 103.043594 24.457187 
" style="fill:none;stroke:#dedede;stroke-dasharray:2.96,1.28;stroke-dashoffset:0;stroke-width:0.8;"/>
     </g>
     <g id="line2d_14">
      <defs>
       <path d="M 0 0 
L 0 4 
" id="m49b76adf24" style="stroke:#000000;stroke-width:2;"/>
      </defs>
      <g>
       <use style="stroke:#000000;stroke-width:2;" x="103.043594" xlink:href="#m49b76adf24" y="412.037187"/>
      </g>
     </g>
    </g>
    <g id="xtick_8">
     <g id="line2d_15">
      <path clip-path="url(#p985a01577a)" d="M 127.893594 412.037187 
L 127.893594 24.457187 
" style="fill:none;stroke:#dedede;stroke-dasharray:2.96,1.28;stroke-dashoffset:0;stroke-width:0.8;"/>
     </g>
     <g id="line2d_16">
      <g>
       <use style="stroke:#000000;stroke-width:2;" x="127.893594" xlink:href="#m49b76adf24" y="412.037187"/>
      </g>
     </g>
    </g>
    <g id="xtick_9">
     <g id="line2d_17">
      <path clip-path="url(#p985a01577a)" d="M 177.593594 412.037187 
L 177.593594 24.457187 
" style="fill:none;stroke:#dedede;stroke-dasharray:2.96,1.28;stroke-dashoffset:0;stroke-width:0.8;"/>
     </g>
     <g id="line2d_18">
      <g>
       <use style="stroke:#000000;stroke-width:2;" x="177.593594" xlink:href="#m49b76adf24" y="412.037187"/>
      </g>
     </g>
    </g>
    <g id="xtick_10">
     <g id="line2d_19">
      <path clip-path="url(#p985a01577a)" d="M 202.443594 412.037187 
L 202.443594 24.457187 
" style="fill:none;stroke:#dedede;stroke-dasharray:2.96,1.28;stroke-dashoffset:0;stroke-width:0.8;"/>
     </g>
     <g id="line2d_20">
      <g>
       <use style="stroke:#000000;stroke-width:2;" x="202.443594" xlink:href="#m49b76adf24" y="412.037187"/>
      </g>
     </g>
    </g>
    <g id="xtick_11">
     <g id="line2d_21">
      <path clip-path="url(#p985a01577a)" d="M 252.143594 412.037187 
L 252.143594 24.457187 
" style="fill:none;stroke:#dedede;stroke-dasharray:2.96,1.28;stroke-dashoffset:0;stroke-width:0.8;"/>
     </g>
     <g id="line2d_22">
      <g>
       <use style="stroke:#000000;stroke-width:2;" x="252.143594" xlink:href="#m49b76adf24" y="412.037187"/>
      </g>
     </g>
    </g>
    <g id="xtick_12">
     <g id="line2d_23">
      <path clip-path="url(#p985a01577a)" d="M 276.993594 412.037187 
L 276.993594 24.457187 
" style="fill:none;stroke:#dedede;stroke-dasharray:2.96,1.28;stroke-dashoffset:0;stroke-width:0.8;"/>
     </g>
     <g id="line2d_24">
      <g>
       <use style="stroke:#000000;stroke-width:2;" x="276.993594" xlink:href="#m49b76adf24" y="412.037187"/>
      </g>
     </g>
    </g>
    <g id="xtick_13">
     <g id="line2d_25">
      <path clip-path="url(#p985a01577a)" d="M 326.693594 412.037187 
L 326.693594 24.457187 
" style="fill:none;stroke:#dedede;stroke-dasharray:2.96,1.28;stroke-dashoffset:0;stroke-width:0.8;"/>
     </g>
     <g id="line2d_26">
      <g>
       <use style="stroke:#000000;stroke-width:2;" x="326.693594" xlink:href="#m49b76adf24" y="412.037187"/>
      </g>
     </g>
    </g>
    <g id="xtick_14">
     <g id="line2d_27">
      <path clip-path="url(#p985a01577a)" d="M 351.543594 412.037187 
L 351.543594 24.457187 
" style="fill:none;stroke:#dedede;stroke-dasharray:2.96,1.28;stroke-dashoffset:0;stroke-width:0.8;"/>
     </g>
     <g id="line2d_28">
      <g>
       <use style="stroke:#000000;stroke-width:2;" x="351.543594" xlink:href="#m49b76adf24" y="412.037187"/>
      </g>
     </g>
    </g>
    <g id="xtick_15">
     <g id="line2d_29">
      <path clip-path="url(#p985a01577a)" d="M 401.243594 412.037187 
L 401.243594 24.457187 
" style="fill:none;stroke:#dedede;stroke-dasharray:2.96,1.28;stroke-dashoffset:0;stroke-width:0.8;"/>
     </g>
     <g id="line2d_30">
      <g>
       <use style="stroke:#000000;stroke-width:2;" x="401.243594" xlink:href="#m49b76adf24" y="412.037187"/>
      </g>
     </g>
    </g>
    <g id="xtick_16">
     <g id="line2d_31">
      <path clip-path="url(#p985a01577a)" d="M 426.093594 412.037187 
L 426.093594 24.457187 
" style="fill:none;stroke:#dedede;stroke-dasharray:2.96,1.28;stroke-dashoffset:0;stroke-width:0.8;"/>
     </g>
     <g id="line2d_32">
      <g>
       <use style="stroke:#000000;stroke-width:2;" x="426.093594" xlink:href="#m49b76adf24" y="412.037187"/>
      </g>
     </g>
    </g>
    <g id="xtick_17">
     <g id="line2d_33">
      <path clip-path="url(#p985a01577a)" d="M 475.793594 412.037187 
L 475.793594 24.457187 
" style="fill:none;stroke:#dedede;stroke-dasharray:2.96,1.28;stroke-dashoffset:0;stroke-width:0.8;"/>
     </g>
     <g id="line2d_34">
      <g>
       <use style="stroke:#000000;stroke-width:2;" x="475.793594" xlink:href="#m49b76adf24" y="412.037187"/>
      </g>
     </g>
    </g>
    <g id="xtick_18">
     <g id="line2d_35">
      <path clip-path="url(#p985a01577a)" d="M 500.643594 412.037187 
L 500.643594 24.457187 
" style="fill:none;stroke:#dedede;stroke-dasharray:2.96,1.28;stroke-dashoffset:0;stroke-width:0.8;"/>
     </g>
     <g id="line2d_36">
      <g>
       <use style="stroke:#000000;stroke-width:2;" x="500.643594" xlink:href="#m49b76adf24" y="412.037187"/>
      </g>
     </g>
    </g>
    <g id="text_7">
     <!-- Lead time (months) -->
     <g transform="translate(218.120859 448.967656)scale(0.17 -0.17)">
      <defs>
       <path d="M 63.140625 23.25 
L 60.640625 0 
L 1.859375 0 
L 1.859375 1.8125 
L 4.046875 1.8125 
Q 6.9375 1.8125 8.6875 2.828125 
Q 9.96875 3.515625 10.640625 5.171875 
Q 11.1875 6.34375 11.1875 11.328125 
L 11.1875 54.890625 
Q 11.1875 59.96875 10.640625 61.234375 
Q 10.109375 62.5 8.46875 63.453125 
Q 6.84375 64.40625 4.046875 64.40625 
L 1.859375 64.40625 
L 1.859375 66.21875 
L 37.15625 66.21875 
L 37.15625 64.40625 
L 34.28125 64.40625 
Q 31.390625 64.40625 29.640625 63.375 
Q 28.375 62.703125 27.640625 61.03125 
Q 27.09375 59.859375 27.09375 54.890625 
L 27.09375 12.703125 
Q 27.09375 7.625 27.671875 6.21875 
Q 28.265625 4.828125 29.984375 4.15625 
Q 31.203125 3.71875 35.890625 3.71875 
L 41.40625 3.71875 
Q 46.6875 3.71875 50.203125 5.5625 
Q 53.71875 7.421875 56.28125 11.421875 
Q 58.84375 15.4375 61.140625 23.25 
z
" id="TimesNewRomanPS-BoldMT-76"/>
       <path d="M 42.046875 24.46875 
L 17 24.46875 
Q 17.4375 15.375 21.828125 10.109375 
Q 25.203125 6.0625 29.9375 6.0625 
Q 32.859375 6.0625 35.25 7.6875 
Q 37.640625 9.328125 40.375 13.578125 
L 42.046875 12.5 
Q 38.328125 4.9375 33.828125 1.78125 
Q 29.34375 -1.375 23.4375 -1.375 
Q 13.28125 -1.375 8.0625 6.453125 
Q 3.859375 12.75 3.859375 22.078125 
Q 3.859375 33.5 10.03125 40.25 
Q 16.21875 47.015625 24.515625 47.015625 
Q 31.453125 47.015625 36.546875 41.328125 
Q 41.65625 35.640625 42.046875 24.46875 
z
M 30.03125 27.734375 
Q 30.03125 35.59375 29.171875 38.515625 
Q 28.328125 41.453125 26.515625 42.96875 
Q 25.484375 43.84375 23.78125 43.84375 
Q 21.234375 43.84375 19.625 41.359375 
Q 16.75 37.015625 16.75 29.4375 
L 16.75 27.734375 
z
" id="TimesNewRomanPS-BoldMT-101"/>
       <path d="M 28.5625 6.734375 
Q 20.21875 -0.640625 13.578125 -0.640625 
Q 9.671875 -0.640625 7.078125 1.921875 
Q 4.5 4.5 4.5 8.34375 
Q 4.5 13.578125 8.984375 17.75 
Q 13.484375 21.921875 28.5625 28.859375 
L 28.5625 33.453125 
Q 28.5625 38.625 28 39.96875 
Q 27.4375 41.3125 25.875 42.3125 
Q 24.3125 43.3125 22.359375 43.3125 
Q 19.1875 43.3125 17.140625 41.890625 
Q 15.875 41.015625 15.875 39.84375 
Q 15.875 38.8125 17.234375 37.3125 
Q 19.09375 35.203125 19.09375 33.25 
Q 19.09375 30.859375 17.3125 29.171875 
Q 15.53125 27.484375 12.640625 27.484375 
Q 9.578125 27.484375 7.5 29.34375 
Q 5.421875 31.203125 5.421875 33.6875 
Q 5.421875 37.203125 8.203125 40.40625 
Q 10.984375 43.609375 15.96875 45.3125 
Q 20.953125 47.015625 26.3125 47.015625 
Q 32.8125 47.015625 36.59375 44.25 
Q 40.375 41.5 41.5 38.28125 
Q 42.1875 36.234375 42.1875 28.859375 
L 42.1875 11.140625 
Q 42.1875 8.015625 42.421875 7.203125 
Q 42.671875 6.390625 43.15625 6 
Q 43.65625 5.609375 44.28125 5.609375 
Q 45.5625 5.609375 46.875 7.421875 
L 48.34375 6.25 
Q 45.90625 2.640625 43.28125 1 
Q 40.671875 -0.640625 37.359375 -0.640625 
Q 33.453125 -0.640625 31.25 1.1875 
Q 29.046875 3.03125 28.5625 6.734375 
z
M 28.5625 10.296875 
L 28.5625 25.59375 
Q 22.65625 22.125 19.78125 18.171875 
Q 17.875 15.53125 17.875 12.84375 
Q 17.875 10.59375 19.484375 8.890625 
Q 20.703125 7.5625 22.90625 7.5625 
Q 25.34375 7.5625 28.5625 10.296875 
z
" id="TimesNewRomanPS-BoldMT-97"/>
       <path d="M 47.75 66.21875 
L 47.75 13.671875 
Q 47.75 8.34375 48.046875 7.375 
Q 48.4375 5.765625 49.53125 4.984375 
Q 50.640625 4.203125 53.375 4 
L 53.375 2.390625 
L 34.078125 -1.375 
L 34.078125 5.859375 
Q 30.609375 1.65625 27.90625 0.140625 
Q 25.203125 -1.375 21.78125 -1.375 
Q 13.03125 -1.375 7.953125 6.453125 
Q 3.859375 12.796875 3.859375 22.015625 
Q 3.859375 29.390625 6.390625 35.21875 
Q 8.9375 41.0625 13.359375 44.03125 
Q 17.78125 47.015625 22.859375 47.015625 
Q 26.125 47.015625 28.65625 45.75 
Q 31.203125 44.484375 34.078125 41.3125 
L 34.078125 55.078125 
Q 34.078125 60.296875 33.640625 61.375 
Q 33.0625 62.796875 31.890625 63.46875 
Q 30.71875 64.15625 27.484375 64.15625 
L 27.484375 66.21875 
z
M 34.078125 35.25 
Q 30.46875 42.1875 25.25 42.1875 
Q 23.4375 42.1875 22.265625 41.21875 
Q 20.453125 39.703125 19.3125 35.890625 
Q 18.171875 32.078125 18.171875 24.21875 
Q 18.171875 15.578125 19.4375 11.421875 
Q 20.703125 7.28125 22.90625 5.421875 
Q 24.03125 4.5 25.984375 4.5 
Q 30.28125 4.5 34.078125 11.234375 
z
" id="TimesNewRomanPS-BoldMT-100"/>
       <path id="TimesNewRomanPS-BoldMT-32"/>
       <path d="M 21.484375 62.359375 
L 21.484375 45.65625 
L 32.328125 45.65625 
L 32.328125 40.828125 
L 21.484375 40.828125 
L 21.484375 12.640625 
Q 21.484375 8.6875 21.84375 7.53125 
Q 22.21875 6.390625 23.140625 5.6875 
Q 24.078125 4.984375 24.859375 4.984375 
Q 28.03125 4.984375 30.859375 9.8125 
L 32.328125 8.734375 
Q 28.375 -0.640625 19.484375 -0.640625 
Q 15.140625 -0.640625 12.125 1.78125 
Q 9.125 4.203125 8.296875 7.171875 
Q 7.8125 8.84375 7.8125 16.15625 
L 7.8125 40.828125 
L 1.859375 40.828125 
L 1.859375 42.53125 
Q 8.015625 46.875 12.328125 51.65625 
Q 16.65625 56.453125 19.875 62.359375 
z
" id="TimesNewRomanPS-BoldMT-116"/>
       <path d="M 14.359375 67.78125 
Q 17.53125 67.78125 19.71875 65.546875 
Q 21.921875 63.328125 21.921875 60.203125 
Q 21.921875 57.078125 19.703125 54.875 
Q 17.484375 52.6875 14.359375 52.6875 
Q 11.234375 52.6875 9.03125 54.875 
Q 6.84375 57.078125 6.84375 60.203125 
Q 6.84375 63.328125 9.03125 65.546875 
Q 11.234375 67.78125 14.359375 67.78125 
z
M 21.1875 45.65625 
L 21.1875 9.46875 
Q 21.1875 4.640625 22.3125 3.296875 
Q 23.4375 1.953125 26.703125 1.765625 
L 26.703125 0 
L 2.046875 0 
L 2.046875 1.765625 
Q 5.078125 1.859375 6.546875 3.515625 
Q 7.515625 4.640625 7.515625 9.46875 
L 7.515625 36.140625 
Q 7.515625 40.96875 6.390625 42.3125 
Q 5.28125 43.65625 2.046875 43.84375 
L 2.046875 45.65625 
z
" id="TimesNewRomanPS-BoldMT-105"/>
       <path d="M 22.3125 45.65625 
L 22.3125 39.65625 
Q 26.078125 43.75 29.265625 45.375 
Q 32.46875 47.015625 36.28125 47.015625 
Q 40.671875 47.015625 43.640625 44.96875 
Q 46.625 42.921875 48.25 38.71875 
Q 52.15625 43.109375 55.734375 45.0625 
Q 59.328125 47.015625 63.234375 47.015625 
Q 67.96875 47.015625 70.765625 44.84375 
Q 73.578125 42.671875 74.671875 39.328125 
Q 75.78125 35.984375 75.78125 28.65625 
L 75.78125 9.96875 
Q 75.78125 4.6875 76.734375 3.421875 
Q 77.6875 2.15625 80.71875 1.765625 
L 80.71875 0 
L 57.125 0 
L 57.125 1.765625 
Q 59.90625 2 61.234375 3.90625 
Q 62.109375 5.21875 62.109375 9.96875 
L 62.109375 29.59375 
Q 62.109375 35.6875 61.625 37.34375 
Q 61.140625 39.015625 60.078125 39.8125 
Q 59.03125 40.625 57.625 40.625 
Q 55.515625 40.625 53.359375 39.078125 
Q 51.21875 37.546875 49.03125 34.46875 
L 49.03125 9.96875 
Q 49.03125 5.03125 49.859375 3.765625 
Q 50.984375 1.953125 54.15625 1.765625 
L 54.15625 0 
L 30.515625 0 
L 30.515625 1.765625 
Q 32.421875 1.859375 33.515625 2.703125 
Q 34.625 3.5625 34.984375 4.75 
Q 35.359375 5.953125 35.359375 9.96875 
L 35.359375 29.59375 
Q 35.359375 35.796875 34.859375 37.359375 
Q 34.375 38.921875 33.21875 39.796875 
Q 32.078125 40.671875 30.765625 40.671875 
Q 28.8125 40.671875 27.203125 39.65625 
Q 24.90625 38.140625 22.3125 34.46875 
L 22.3125 9.96875 
Q 22.3125 5.125 23.265625 3.578125 
Q 24.21875 2.046875 27.25 1.765625 
L 27.25 0 
L 3.71875 0 
L 3.71875 1.765625 
Q 6.59375 2.046875 7.8125 3.609375 
Q 8.640625 4.6875 8.640625 9.96875 
L 8.640625 35.75 
Q 8.640625 40.921875 7.6875 42.1875 
Q 6.734375 43.453125 3.71875 43.84375 
L 3.71875 45.65625 
z
" id="TimesNewRomanPS-BoldMT-109"/>
       <path d="M 32.125 67.71875 
L 32.125 65.484375 
Q 27.046875 62.15625 24.65625 58.984375 
Q 21.34375 54.59375 19.484375 47.703125 
Q 17.140625 39.15625 17.140625 23.828125 
Q 17.140625 9.375 19.265625 1.359375 
Q 21.390625 -6.640625 25.046875 -11.578125 
Q 27.59375 -14.984375 32.125 -17.578125 
L 32.125 -20.015625 
Q 20.359375 -16.0625 12.171875 -3.875 
Q 4 8.296875 4 24.125 
Q 4 39.75 12.15625 51.78125 
Q 20.3125 63.8125 32.125 67.71875 
z
" id="TimesNewRomanPS-BoldMT-40"/>
       <path d="M 24.90625 47.015625 
Q 30.859375 47.015625 35.984375 43.9375 
Q 41.109375 40.875 43.765625 35.203125 
Q 46.4375 29.546875 46.4375 22.796875 
Q 46.4375 13.09375 41.5 6.546875 
Q 35.546875 -1.375 25.046875 -1.375 
Q 14.75 -1.375 9.171875 5.859375 
Q 3.609375 13.09375 3.609375 22.609375 
Q 3.609375 32.421875 9.296875 39.71875 
Q 14.984375 47.015625 24.90625 47.015625 
z
M 25.09375 43.5625 
Q 22.609375 43.5625 20.828125 41.671875 
Q 19.046875 39.796875 18.484375 34.25 
Q 17.921875 28.71875 17.921875 18.84375 
Q 17.921875 13.625 18.609375 9.078125 
Q 19.140625 5.609375 20.890625 3.796875 
Q 22.65625 2 24.90625 2 
Q 27.09375 2 28.5625 3.21875 
Q 30.46875 4.890625 31.109375 7.859375 
Q 32.078125 12.5 32.078125 26.609375 
Q 32.078125 34.90625 31.140625 38 
Q 30.21875 41.109375 28.421875 42.53125 
Q 27.15625 43.5625 25.09375 43.5625 
z
" id="TimesNewRomanPS-BoldMT-111"/>
       <path d="M 22.015625 45.65625 
L 22.015625 39.75 
Q 25.53125 43.5625 28.75 45.28125 
Q 31.984375 47.015625 35.6875 47.015625 
Q 40.140625 47.015625 43.0625 44.546875 
Q 46 42.09375 46.96875 38.421875 
Q 47.75 35.640625 47.75 27.734375 
L 47.75 9.96875 
Q 47.75 4.6875 48.703125 3.390625 
Q 49.65625 2.09375 52.6875 1.765625 
L 52.6875 0 
L 29.59375 0 
L 29.59375 1.765625 
Q 32.171875 2.09375 33.296875 3.90625 
Q 34.078125 5.125 34.078125 9.96875 
L 34.078125 30.28125 
Q 34.078125 35.890625 33.640625 37.34375 
Q 33.203125 38.8125 32.15625 39.625 
Q 31.109375 40.4375 29.828125 40.4375 
Q 25.640625 40.4375 22.015625 34.421875 
L 22.015625 9.96875 
Q 22.015625 4.828125 22.96875 3.453125 
Q 23.921875 2.09375 26.515625 1.765625 
L 26.515625 0 
L 3.421875 0 
L 3.421875 1.765625 
Q 6.296875 2.046875 7.515625 3.609375 
Q 8.34375 4.6875 8.34375 9.96875 
L 8.34375 35.75 
Q 8.34375 40.921875 7.390625 42.1875 
Q 6.453125 43.453125 3.421875 43.84375 
L 3.421875 45.65625 
z
" id="TimesNewRomanPS-BoldMT-110"/>
       <path d="M 22.015625 66.21875 
L 22.015625 39.796875 
Q 25.78125 43.75 28.90625 45.375 
Q 32.03125 47.015625 35.40625 47.015625 
Q 39.703125 47.015625 42.75 44.578125 
Q 45.796875 42.140625 46.796875 38.84375 
Q 47.796875 35.546875 47.796875 27.734375 
L 47.796875 9.90625 
Q 47.796875 4.6875 48.765625 3.390625 
Q 49.75 2.09375 52.734375 1.765625 
L 52.734375 0 
L 29.59375 0 
L 29.59375 1.765625 
Q 32.03125 2.09375 33.25 3.71875 
Q 34.125 4.984375 34.125 9.90625 
L 34.125 30.28125 
Q 34.125 35.9375 33.6875 37.375 
Q 33.25 38.8125 32.203125 39.625 
Q 31.15625 40.4375 29.828125 40.4375 
Q 27.875 40.4375 26.015625 39.09375 
Q 24.171875 37.75 22.015625 34.375 
L 22.015625 9.90625 
Q 22.015625 5.03125 22.75 3.8125 
Q 23.6875 2.15625 26.5625 1.765625 
L 26.5625 0 
L 3.421875 0 
L 3.421875 1.765625 
Q 6.296875 2.046875 7.515625 3.609375 
Q 8.34375 4.6875 8.34375 9.90625 
L 8.34375 56.296875 
Q 8.34375 61.46875 7.390625 62.734375 
Q 6.453125 64.015625 3.421875 64.40625 
L 3.421875 66.21875 
z
" id="TimesNewRomanPS-BoldMT-104"/>
       <path d="M 32.234375 46.921875 
L 32.953125 31.34375 
L 31.296875 31.34375 
Q 28.328125 38.28125 25.125 40.8125 
Q 21.921875 43.359375 18.75 43.359375 
Q 16.75 43.359375 15.328125 42.015625 
Q 13.921875 40.671875 13.921875 38.921875 
Q 13.921875 37.59375 14.890625 36.375 
Q 16.453125 34.375 23.625 29.515625 
Q 30.8125 24.65625 33.078125 21.265625 
Q 35.359375 17.875 35.359375 13.671875 
Q 35.359375 9.859375 33.453125 6.203125 
Q 31.546875 2.546875 28.078125 0.578125 
Q 24.609375 -1.375 20.40625 -1.375 
Q 17.140625 -1.375 11.671875 0.6875 
Q 10.203125 1.21875 9.671875 1.21875 
Q 8.0625 1.21875 6.984375 -1.21875 
L 5.375 -1.21875 
L 4.59375 15.1875 
L 6.25 15.1875 
Q 8.453125 8.734375 12.28125 5.515625 
Q 16.109375 2.296875 19.53125 2.296875 
Q 21.875 2.296875 23.359375 3.734375 
Q 24.859375 5.171875 24.859375 7.234375 
Q 24.859375 9.578125 23.390625 11.28125 
Q 21.921875 12.984375 16.84375 16.453125 
Q 9.375 21.625 7.171875 24.359375 
Q 3.953125 28.375 3.953125 33.203125 
Q 3.953125 38.484375 7.59375 42.75 
Q 11.234375 47.015625 18.109375 47.015625 
Q 21.828125 47.015625 25.296875 45.21875 
Q 26.609375 44.484375 27.4375 44.484375 
Q 28.328125 44.484375 28.859375 44.84375 
Q 29.390625 45.21875 30.5625 46.921875 
z
" id="TimesNewRomanPS-BoldMT-115"/>
       <path d="M 1.21875 -20.015625 
L 1.21875 -17.78125 
Q 6.296875 -14.40625 8.6875 -11.234375 
Q 11.96875 -6.84375 13.875 0 
Q 16.21875 8.59375 16.21875 23.921875 
Q 16.21875 38.375 14.09375 46.359375 
Q 11.96875 54.34375 8.296875 59.28125 
Q 5.765625 62.703125 1.21875 65.28125 
L 1.21875 67.71875 
Q 12.984375 63.765625 21.15625 51.578125 
Q 29.34375 39.40625 29.34375 23.578125 
Q 29.34375 8.015625 21.15625 -4.015625 
Q 12.984375 -16.0625 1.21875 -20.015625 
z
" id="TimesNewRomanPS-BoldMT-41"/>
      </defs>
      <use xlink:href="#TimesNewRomanPS-BoldMT-76"/>
      <use x="66.699219" xlink:href="#TimesNewRomanPS-BoldMT-101"/>
      <use x="111.083984" xlink:href="#TimesNewRomanPS-BoldMT-97"/>
      <use x="161.083984" xlink:href="#TimesNewRomanPS-BoldMT-100"/>
      <use x="216.699219" xlink:href="#TimesNewRomanPS-BoldMT-32"/>
      <use x="241.699219" xlink:href="#TimesNewRomanPS-BoldMT-116"/>
      <use x="275" xlink:href="#TimesNewRomanPS-BoldMT-105"/>
      <use x="302.783203" xlink:href="#TimesNewRomanPS-BoldMT-109"/>
      <use x="386.083984" xlink:href="#TimesNewRomanPS-BoldMT-101"/>
      <use x="430.46875" xlink:href="#TimesNewRomanPS-BoldMT-32"/>
      <use x="455.46875" xlink:href="#TimesNewRomanPS-BoldMT-40"/>
      <use x="488.769531" xlink:href="#TimesNewRomanPS-BoldMT-109"/>
      <use x="572.070312" xlink:href="#TimesNewRomanPS-BoldMT-111"/>
      <use x="622.070312" xlink:href="#TimesNewRomanPS-BoldMT-110"/>
      <use x="677.685547" xlink:href="#TimesNewRomanPS-BoldMT-116"/>
      <use x="710.986328" xlink:href="#TimesNewRomanPS-BoldMT-104"/>
      <use x="766.601562" xlink:href="#TimesNewRomanPS-BoldMT-115"/>
      <use x="805.517578" xlink:href="#TimesNewRomanPS-BoldMT-41"/>
     </g>
    </g>
   </g>
   <g id="matplotlib.axis_2">
    <g id="ytick_1">
     <g id="line2d_37">
      <path clip-path="url(#p985a01577a)" d="M 53.343594 412.037187 
L 525.493594 412.037187 
" style="fill:none;stroke:#dedede;stroke-dasharray:2.96,1.28;stroke-dashoffset:0;stroke-width:0.8;"/>
     </g>
     <g id="line2d_38">
      <defs>
       <path d="M 0 0 
L -5 0 
" id="me804b84426" style="stroke:#000000;stroke-width:2;"/>
      </defs>
      <g>
       <use style="stroke:#000000;stroke-width:2;" x="53.343594" xlink:href="#me804b84426" y="412.037187"/>
      </g>
     </g>
     <g id="text_8">
      <!-- 0.0 -->
      <g transform="translate(26.093594 417.003594)scale(0.15 -0.15)">
       <defs>
        <path d="M 12.5 15.046875 
Q 15.921875 15.046875 18.28125 12.640625 
Q 20.65625 10.25 20.65625 6.890625 
Q 20.65625 3.515625 18.265625 1.140625 
Q 15.875 -1.21875 12.5 -1.21875 
Q 9.125 -1.21875 6.75 1.140625 
Q 4.390625 3.515625 4.390625 6.890625 
Q 4.390625 10.25 6.75 12.640625 
Q 9.125 15.046875 12.5 15.046875 
z
" id="TimesNewRomanPS-BoldMT-46"/>
       </defs>
       <use xlink:href="#TimesNewRomanPS-BoldMT-48"/>
       <use x="50" xlink:href="#TimesNewRomanPS-BoldMT-46"/>
       <use x="75" xlink:href="#TimesNewRomanPS-BoldMT-48"/>
      </g>
     </g>
    </g>
    <g id="ytick_2">
     <g id="line2d_39">
      <path clip-path="url(#p985a01577a)" d="M 53.343594 334.521187 
L 525.493594 334.521187 
" style="fill:none;stroke:#dedede;stroke-dasharray:2.96,1.28;stroke-dashoffset:0;stroke-width:0.8;"/>
     </g>
     <g id="line2d_40">
      <g>
       <use style="stroke:#000000;stroke-width:2;" x="53.343594" xlink:href="#me804b84426" y="334.521187"/>
      </g>
     </g>
     <g id="text_9">
      <!-- 0.2 -->
      <g transform="translate(26.093594 339.487594)scale(0.15 -0.15)">
       <defs>
        <path d="M 41.40625 0 
L 2.4375 0 
L 2.4375 1.078125 
Q 20.359375 22.40625 24.1875 29.78125 
Q 28.03125 37.15625 28.03125 44.1875 
Q 28.03125 49.3125 24.859375 52.703125 
Q 21.6875 56.109375 17.09375 56.109375 
Q 9.578125 56.109375 5.421875 48.578125 
L 3.609375 49.21875 
Q 6.25 58.59375 11.625 63.078125 
Q 17 67.578125 24.03125 67.578125 
Q 29.046875 67.578125 33.203125 65.234375 
Q 37.359375 62.890625 39.703125 58.8125 
Q 42.046875 54.734375 42.046875 51.171875 
Q 42.046875 44.671875 38.421875 37.984375 
Q 33.5 28.953125 16.890625 12.796875 
L 31.203125 12.796875 
Q 36.46875 12.796875 38.0625 13.234375 
Q 39.65625 13.671875 40.671875 14.71875 
Q 41.703125 15.765625 43.359375 19.140625 
L 45.125 19.140625 
z
" id="TimesNewRomanPS-BoldMT-50"/>
       </defs>
       <use xlink:href="#TimesNewRomanPS-BoldMT-48"/>
       <use x="50" xlink:href="#TimesNewRomanPS-BoldMT-46"/>
       <use x="75" xlink:href="#TimesNewRomanPS-BoldMT-50"/>
      </g>
     </g>
    </g>
    <g id="ytick_3">
     <g id="line2d_41">
      <path clip-path="url(#p985a01577a)" d="M 53.343594 257.005187 
L 525.493594 257.005187 
" style="fill:none;stroke:#dedede;stroke-dasharray:2.96,1.28;stroke-dashoffset:0;stroke-width:0.8;"/>
     </g>
     <g id="line2d_42">
      <g>
       <use style="stroke:#000000;stroke-width:2;" x="53.343594" xlink:href="#me804b84426" y="257.005187"/>
      </g>
     </g>
     <g id="text_10">
      <!-- 0.4 -->
      <g transform="translate(26.093594 261.971594)scale(0.15 -0.15)">
       <use xlink:href="#TimesNewRomanPS-BoldMT-48"/>
       <use x="50" xlink:href="#TimesNewRomanPS-BoldMT-46"/>
       <use x="75" xlink:href="#TimesNewRomanPS-BoldMT-52"/>
      </g>
     </g>
    </g>
    <g id="ytick_4">
     <g id="line2d_43">
      <path clip-path="url(#p985a01577a)" d="M 53.343594 179.489187 
L 525.493594 179.489187 
" style="fill:none;stroke:#dedede;stroke-dasharray:2.96,1.28;stroke-dashoffset:0;stroke-width:0.8;"/>
     </g>
     <g id="line2d_44">
      <g>
       <use style="stroke:#000000;stroke-width:2;" x="53.343594" xlink:href="#me804b84426" y="179.489187"/>
      </g>
     </g>
     <g id="text_11">
      <!-- 0.6 -->
      <g transform="translate(26.093594 184.455594)scale(0.15 -0.15)">
       <use xlink:href="#TimesNewRomanPS-BoldMT-48"/>
       <use x="50" xlink:href="#TimesNewRomanPS-BoldMT-46"/>
       <use x="75" xlink:href="#TimesNewRomanPS-BoldMT-54"/>
      </g>
     </g>
    </g>
    <g id="ytick_5">
     <g id="line2d_45">
      <path clip-path="url(#p985a01577a)" d="M 53.343594 101.973187 
L 525.493594 101.973187 
" style="fill:none;stroke:#dedede;stroke-dasharray:2.96,1.28;stroke-dashoffset:0;stroke-width:0.8;"/>
     </g>
     <g id="line2d_46">
      <g>
       <use style="stroke:#000000;stroke-width:2;" x="53.343594" xlink:href="#me804b84426" y="101.973187"/>
      </g>
     </g>
     <g id="text_12">
      <!-- 0.8 -->
      <g transform="translate(26.093594 106.939594)scale(0.15 -0.15)">
       <defs>
        <path d="M 34.078125 37.40625 
Q 41.0625 32.28125 43.765625 27.859375 
Q 46.484375 23.4375 46.484375 17.71875 
Q 46.484375 9.71875 40.453125 4.171875 
Q 34.421875 -1.375 24.078125 -1.375 
Q 14.265625 -1.375 8.890625 3.453125 
Q 3.515625 8.296875 3.515625 15.28125 
Q 3.515625 20.609375 6.609375 24.609375 
Q 9.71875 28.609375 16.9375 31.9375 
Q 9.078125 37.9375 6.859375 41.75 
Q 4.640625 45.5625 4.640625 50.59375 
Q 4.640625 57.234375 10.28125 62.28125 
Q 15.921875 67.328125 25.734375 67.328125 
Q 35.203125 67.328125 40.296875 62.859375 
Q 45.40625 58.40625 45.40625 52.15625 
Q 45.40625 47.46875 42.640625 43.875 
Q 39.890625 40.28125 34.078125 37.40625 
z
M 30.375 39.890625 
Q 32.171875 42.328125 33.046875 45.359375 
Q 33.9375 48.390625 33.9375 52 
Q 33.9375 58.34375 31.203125 61.71875 
Q 29.15625 64.3125 25.53125 64.3125 
Q 22.265625 64.3125 19.96875 61.9375 
Q 17.671875 59.578125 17.671875 56.0625 
Q 17.671875 52.484375 20.234375 48.65625 
Q 22.796875 44.828125 30.375 39.890625 
z
M 20.609375 29.59375 
Q 19.09375 28.21875 18.453125 27.09375 
Q 17.484375 25.390625 16.703125 22.109375 
Q 15.921875 18.84375 15.921875 15.28125 
Q 15.921875 10.6875 17.09375 7.59375 
Q 18.265625 4.5 20.4375 3.125 
Q 22.609375 1.765625 24.90625 1.765625 
Q 28.46875 1.765625 30.90625 4.375 
Q 33.34375 6.984375 33.34375 11.53125 
Q 33.34375 21 20.609375 29.59375 
z
" id="TimesNewRomanPS-BoldMT-56"/>
       </defs>
       <use xlink:href="#TimesNewRomanPS-BoldMT-48"/>
       <use x="50" xlink:href="#TimesNewRomanPS-BoldMT-46"/>
       <use x="75" xlink:href="#TimesNewRomanPS-BoldMT-56"/>
      </g>
     </g>
    </g>
    <g id="ytick_6">
     <g id="line2d_47">
      <path clip-path="url(#p985a01577a)" d="M 53.343594 24.457187 
L 525.493594 24.457187 
" style="fill:none;stroke:#dedede;stroke-dasharray:2.96,1.28;stroke-dashoffset:0;stroke-width:0.8;"/>
     </g>
     <g id="line2d_48">
      <g>
       <use style="stroke:#000000;stroke-width:2;" x="53.343594" xlink:href="#me804b84426" y="24.457187"/>
      </g>
     </g>
     <g id="text_13">
      <!-- 1.0 -->
      <g transform="translate(26.093594 29.423594)scale(0.15 -0.15)">
       <use xlink:href="#TimesNewRomanPS-BoldMT-49"/>
       <use x="50" xlink:href="#TimesNewRomanPS-BoldMT-46"/>
       <use x="75" xlink:href="#TimesNewRomanPS-BoldMT-48"/>
      </g>
     </g>
    </g>
    <g id="ytick_7">
     <g id="line2d_49">
      <path clip-path="url(#p985a01577a)" d="M 53.343594 373.279187 
L 525.493594 373.279187 
" style="fill:none;stroke:#dedede;stroke-dasharray:2.96,1.28;stroke-dashoffset:0;stroke-width:0.8;"/>
     </g>
     <g id="line2d_50">
      <defs>
       <path d="M 0 0 
L -4 0 
" id="mb099536609" style="stroke:#000000;stroke-width:2;"/>
      </defs>
      <g>
       <use style="stroke:#000000;stroke-width:2;" x="53.343594" xlink:href="#mb099536609" y="373.279187"/>
      </g>
     </g>
    </g>
    <g id="ytick_8">
     <g id="line2d_51">
      <path clip-path="url(#p985a01577a)" d="M 53.343594 295.763187 
L 525.493594 295.763187 
" style="fill:none;stroke:#dedede;stroke-dasharray:2.96,1.28;stroke-dashoffset:0;stroke-width:0.8;"/>
     </g>
     <g id="line2d_52">
      <g>
       <use style="stroke:#000000;stroke-width:2;" x="53.343594" xlink:href="#mb099536609" y="295.763187"/>
      </g>
     </g>
    </g>
    <g id="ytick_9">
     <g id="line2d_53">
      <path clip-path="url(#p985a01577a)" d="M 53.343594 218.247187 
L 525.493594 218.247187 
" style="fill:none;stroke:#dedede;stroke-dasharray:2.96,1.28;stroke-dashoffset:0;stroke-width:0.8;"/>
     </g>
     <g id="line2d_54">
      <g>
       <use style="stroke:#000000;stroke-width:2;" x="53.343594" xlink:href="#mb099536609" y="218.247187"/>
      </g>
     </g>
    </g>
    <g id="ytick_10">
     <g id="line2d_55">
      <path clip-path="url(#p985a01577a)" d="M 53.343594 140.731187 
L 525.493594 140.731187 
" style="fill:none;stroke:#dedede;stroke-dasharray:2.96,1.28;stroke-dashoffset:0;stroke-width:0.8;"/>
     </g>
     <g id="line2d_56">
      <g>
       <use style="stroke:#000000;stroke-width:2;" x="53.343594" xlink:href="#mb099536609" y="140.731187"/>
      </g>
     </g>
    </g>
    <g id="ytick_11">
     <g id="line2d_57">
      <path clip-path="url(#p985a01577a)" d="M 53.343594 63.215187 
L 525.493594 63.215187 
" style="fill:none;stroke:#dedede;stroke-dasharray:2.96,1.28;stroke-dashoffset:0;stroke-width:0.8;"/>
     </g>
     <g id="line2d_58">
      <g>
       <use style="stroke:#000000;stroke-width:2;" x="53.343594" xlink:href="#mb099536609" y="63.215187"/>
      </g>
     </g>
    </g>
    <g id="text_14">
     <!-- ACC -->
     <g transform="translate(18.457188 236.662969)rotate(-90)scale(0.17 -0.17)">
      <defs>
       <path d="M 41.609375 18.84375 
L 18.21875 18.84375 
L 15.4375 12.40625 
Q 14.0625 9.1875 14.0625 7.078125 
Q 14.0625 4.296875 16.3125 2.984375 
Q 17.625 2.203125 22.796875 1.8125 
L 22.796875 0 
L 0.78125 0 
L 0.78125 1.8125 
Q 4.34375 2.34375 6.640625 4.75 
Q 8.9375 7.171875 12.3125 14.75 
L 35.984375 67.578125 
L 36.921875 67.578125 
L 60.796875 13.28125 
Q 64.203125 5.5625 66.40625 3.5625 
Q 68.0625 2.046875 71.09375 1.8125 
L 71.09375 0 
L 39.0625 0 
L 39.0625 1.8125 
L 40.375 1.8125 
Q 44.234375 1.8125 45.796875 2.875 
Q 46.875 3.65625 46.875 5.125 
Q 46.875 6 46.578125 6.9375 
Q 46.484375 7.375 45.125 10.59375 
z
M 39.9375 22.46875 
L 30.078125 45.265625 
L 19.921875 22.46875 
z
" id="TimesNewRomanPS-BoldMT-65"/>
       <path d="M 66.75 67.71875 
L 66.75 44.78125 
L 64.84375 44.78125 
Q 62.703125 53.765625 56.84375 58.546875 
Q 50.984375 63.328125 43.5625 63.328125 
Q 37.359375 63.328125 32.171875 59.765625 
Q 27 56.203125 24.609375 50.4375 
Q 21.53125 43.0625 21.53125 34.03125 
Q 21.53125 25.140625 23.78125 17.84375 
Q 26.03125 10.546875 30.8125 6.8125 
Q 35.59375 3.078125 43.21875 3.078125 
Q 49.46875 3.078125 54.65625 5.8125 
Q 59.859375 8.546875 65.625 15.234375 
L 65.625 9.515625 
Q 60.0625 3.71875 54.03125 1.09375 
Q 48 -1.515625 39.9375 -1.515625 
Q 29.34375 -1.515625 21.109375 2.734375 
Q 12.890625 6.984375 8.421875 14.9375 
Q 3.953125 22.90625 3.953125 31.890625 
Q 3.953125 41.359375 8.90625 49.84375 
Q 13.875 58.34375 22.296875 63.03125 
Q 30.71875 67.71875 40.1875 67.71875 
Q 47.171875 67.71875 54.9375 64.703125 
Q 59.421875 62.9375 60.640625 62.9375 
Q 62.203125 62.9375 63.34375 64.078125 
Q 64.5 65.234375 64.84375 67.71875 
z
" id="TimesNewRomanPS-BoldMT-67"/>
      </defs>
      <use xlink:href="#TimesNewRomanPS-BoldMT-65"/>
      <use x="72.216797" xlink:href="#TimesNewRomanPS-BoldMT-67"/>
      <use x="144.433594" xlink:href="#TimesNewRomanPS-BoldMT-67"/>
     </g>
    </g>
   </g>
   <g id="line2d_59">
    <path clip-path="url(#p985a01577a)" d="M 78.193594 33.371527 
L 103.043594 40.735547 
L 127.893594 48.487147 
L 152.743594 54.300847 
L 177.593594 63.602767 
L 202.443594 77.943227 
L 227.293594 105.073827 
L 252.143594 133.754747 
L 276.993594 165.536307 
L 301.843594 195.379967 
L 326.693594 221.735407 
L 351.543594 242.277147 
" style="fill:none;stroke:#ffe200;stroke-linecap:square;stroke-width:1.5;"/>
    <defs>
     <path d="M 0 1.5 
C 0.397805 1.5 0.77937 1.341951 1.06066 1.06066 
C 1.341951 0.77937 1.5 0.397805 1.5 0 
C 1.5 -0.397805 1.341951 -0.77937 1.06066 -1.06066 
C 0.77937 -1.341951 0.397805 -1.5 0 -1.5 
C -0.397805 -1.5 -0.77937 -1.341951 -1.06066 -1.06066 
C -1.341951 -0.77937 -1.5 -0.397805 -1.5 0 
C -1.5 0.397805 -1.341951 0.77937 -1.06066 1.06066 
C -0.77937 1.341951 -0.397805 1.5 0 1.5 
z
" id="m5caabff77d" style="stroke:#ffe200;"/>
    </defs>
    <g clip-path="url(#p985a01577a)">
     <use style="fill:#ffe200;stroke:#ffe200;" x="78.193594" xlink:href="#m5caabff77d" y="33.371527"/>
     <use style="fill:#ffe200;stroke:#ffe200;" x="103.043594" xlink:href="#m5caabff77d" y="40.735547"/>
     <use style="fill:#ffe200;stroke:#ffe200;" x="127.893594" xlink:href="#m5caabff77d" y="48.487147"/>
     <use style="fill:#ffe200;stroke:#ffe200;" x="152.743594" xlink:href="#m5caabff77d" y="54.300847"/>
     <use style="fill:#ffe200;stroke:#ffe200;" x="177.593594" xlink:href="#m5caabff77d" y="63.602767"/>
     <use style="fill:#ffe200;stroke:#ffe200;" x="202.443594" xlink:href="#m5caabff77d" y="77.943227"/>
     <use style="fill:#ffe200;stroke:#ffe200;" x="227.293594" xlink:href="#m5caabff77d" y="105.073827"/>
     <use style="fill:#ffe200;stroke:#ffe200;" x="252.143594" xlink:href="#m5caabff77d" y="133.754747"/>
     <use style="fill:#ffe200;stroke:#ffe200;" x="276.993594" xlink:href="#m5caabff77d" y="165.536307"/>
     <use style="fill:#ffe200;stroke:#ffe200;" x="301.843594" xlink:href="#m5caabff77d" y="195.379967"/>
     <use style="fill:#ffe200;stroke:#ffe200;" x="326.693594" xlink:href="#m5caabff77d" y="221.735407"/>
     <use style="fill:#ffe200;stroke:#ffe200;" x="351.543594" xlink:href="#m5caabff77d" y="242.277147"/>
    </g>
   </g>
   <g id="line2d_60">
    <path clip-path="url(#p985a01577a)" d="M 78.193594 43.227687 
L 103.043594 48.866976 
L 127.893594 55.634123 
L 152.743594 64.281032 
L 177.593594 69.168416 
L 202.443594 72.176037 
L 227.293594 74.0558 
L 252.143594 81.198899 
L 276.993594 95.861051 
L 301.843594 113.530823 
L 326.693594 138.343695 
L 351.543594 165.036329 
" style="fill:none;stroke:#ff4300;stroke-linecap:square;stroke-width:1.5;"/>
    <defs>
     <path d="M 0 1.5 
C 0.397805 1.5 0.77937 1.341951 1.06066 1.06066 
C 1.341951 0.77937 1.5 0.397805 1.5 0 
C 1.5 -0.397805 1.341951 -0.77937 1.06066 -1.06066 
C 0.77937 -1.341951 0.397805 -1.5 0 -1.5 
C -0.397805 -1.5 -0.77937 -1.341951 -1.06066 -1.06066 
C -1.341951 -0.77937 -1.5 -0.397805 -1.5 0 
C -1.5 0.397805 -1.341951 0.77937 -1.06066 1.06066 
C -0.77937 1.341951 -0.397805 1.5 0 1.5 
z
" id="mc202c08e6a" style="stroke:#ff4300;"/>
    </defs>
    <g clip-path="url(#p985a01577a)">
     <use style="fill:#ff4300;stroke:#ff4300;" x="78.193594" xlink:href="#mc202c08e6a" y="43.227687"/>
     <use style="fill:#ff4300;stroke:#ff4300;" x="103.043594" xlink:href="#mc202c08e6a" y="48.866976"/>
     <use style="fill:#ff4300;stroke:#ff4300;" x="127.893594" xlink:href="#mc202c08e6a" y="55.634123"/>
     <use style="fill:#ff4300;stroke:#ff4300;" x="152.743594" xlink:href="#mc202c08e6a" y="64.281032"/>
     <use style="fill:#ff4300;stroke:#ff4300;" x="177.593594" xlink:href="#mc202c08e6a" y="69.168416"/>
     <use style="fill:#ff4300;stroke:#ff4300;" x="202.443594" xlink:href="#mc202c08e6a" y="72.176037"/>
     <use style="fill:#ff4300;stroke:#ff4300;" x="227.293594" xlink:href="#mc202c08e6a" y="74.0558"/>
     <use style="fill:#ff4300;stroke:#ff4300;" x="252.143594" xlink:href="#mc202c08e6a" y="81.198899"/>
     <use style="fill:#ff4300;stroke:#ff4300;" x="276.993594" xlink:href="#mc202c08e6a" y="95.861051"/>
     <use style="fill:#ff4300;stroke:#ff4300;" x="301.843594" xlink:href="#mc202c08e6a" y="113.530823"/>
     <use style="fill:#ff4300;stroke:#ff4300;" x="326.693594" xlink:href="#mc202c08e6a" y="138.343695"/>
     <use style="fill:#ff4300;stroke:#ff4300;" x="351.543594" xlink:href="#mc202c08e6a" y="165.036329"/>
    </g>
   </g>
   <g id="line2d_61">
    <path clip-path="url(#p985a01577a)" d="M 78.193594 51.200207 
L 103.043594 64.765507 
L 127.893594 79.105967 
L 152.743594 98.484967 
L 177.593594 115.926067 
L 202.443594 131.041687 
L 227.293594 132.204427 
L 252.143594 140.731187 
L 276.993594 139.956027 
L 301.843594 152.746167 
L 326.693594 158.559867 
L 351.543594 170.962427 
" style="fill:none;stroke:#c9a06b;stroke-linecap:square;stroke-width:1.5;"/>
    <defs>
     <path d="M 0 1.5 
C 0.397805 1.5 0.77937 1.341951 1.06066 1.06066 
C 1.341951 0.77937 1.5 0.397805 1.5 0 
C 1.5 -0.397805 1.341951 -0.77937 1.06066 -1.06066 
C 0.77937 -1.341951 0.397805 -1.5 0 -1.5 
C -0.397805 -1.5 -0.77937 -1.341951 -1.06066 -1.06066 
C -1.341951 -0.77937 -1.5 -0.397805 -1.5 0 
C -1.5 0.397805 -1.341951 0.77937 -1.06066 1.06066 
C -0.77937 1.341951 -0.397805 1.5 0 1.5 
z
" id="mb90b366873" style="stroke:#c9a06b;"/>
    </defs>
    <g clip-path="url(#p985a01577a)">
     <use style="fill:#c9a06b;stroke:#c9a06b;" x="78.193594" xlink:href="#mb90b366873" y="51.200207"/>
     <use style="fill:#c9a06b;stroke:#c9a06b;" x="103.043594" xlink:href="#mb90b366873" y="64.765507"/>
     <use style="fill:#c9a06b;stroke:#c9a06b;" x="127.893594" xlink:href="#mb90b366873" y="79.105967"/>
     <use style="fill:#c9a06b;stroke:#c9a06b;" x="152.743594" xlink:href="#mb90b366873" y="98.484967"/>
     <use style="fill:#c9a06b;stroke:#c9a06b;" x="177.593594" xlink:href="#mb90b366873" y="115.926067"/>
     <use style="fill:#c9a06b;stroke:#c9a06b;" x="202.443594" xlink:href="#mb90b366873" y="131.041687"/>
     <use style="fill:#c9a06b;stroke:#c9a06b;" x="227.293594" xlink:href="#mb90b366873" y="132.204427"/>
     <use style="fill:#c9a06b;stroke:#c9a06b;" x="252.143594" xlink:href="#mb90b366873" y="140.731187"/>
     <use style="fill:#c9a06b;stroke:#c9a06b;" x="276.993594" xlink:href="#mb90b366873" y="139.956027"/>
     <use style="fill:#c9a06b;stroke:#c9a06b;" x="301.843594" xlink:href="#mb90b366873" y="152.746167"/>
     <use style="fill:#c9a06b;stroke:#c9a06b;" x="326.693594" xlink:href="#mb90b366873" y="158.559867"/>
     <use style="fill:#c9a06b;stroke:#c9a06b;" x="351.543594" xlink:href="#mb90b366873" y="170.962427"/>
    </g>
   </g>
   <g id="line2d_62">
    <path clip-path="url(#p985a01577a)" d="M 78.193594 35.309427 
L 103.043594 44.998927 
L 127.893594 57.789067 
L 152.743594 77.168067 
L 177.593594 92.283687 
L 202.443594 108.174467 
L 227.293594 124.452827 
L 252.143594 147.320047 
L 276.993594 167.861787 
L 301.843594 197.705447 
L 326.693594 248.478427 
L 351.543594 321.731047 
" style="fill:none;stroke:#b259b2;stroke-linecap:square;stroke-width:1.5;"/>
    <defs>
     <path d="M 0 1.5 
C 0.397805 1.5 0.77937 1.341951 1.06066 1.06066 
C 1.341951 0.77937 1.5 0.397805 1.5 0 
C 1.5 -0.397805 1.341951 -0.77937 1.06066 -1.06066 
C 0.77937 -1.341951 0.397805 -1.5 0 -1.5 
C -0.397805 -1.5 -0.77937 -1.341951 -1.06066 -1.06066 
C -1.341951 -0.77937 -1.5 -0.397805 -1.5 0 
C -1.5 0.397805 -1.341951 0.77937 -1.06066 1.06066 
C -0.77937 1.341951 -0.397805 1.5 0 1.5 
z
" id="mdb53961e10" style="stroke:#b259b2;"/>
    </defs>
    <g clip-path="url(#p985a01577a)">
     <use style="fill:#b259b2;stroke:#b259b2;" x="78.193594" xlink:href="#mdb53961e10" y="35.309427"/>
     <use style="fill:#b259b2;stroke:#b259b2;" x="103.043594" xlink:href="#mdb53961e10" y="44.998927"/>
     <use style="fill:#b259b2;stroke:#b259b2;" x="127.893594" xlink:href="#mdb53961e10" y="57.789067"/>
     <use style="fill:#b259b2;stroke:#b259b2;" x="152.743594" xlink:href="#mdb53961e10" y="77.168067"/>
     <use style="fill:#b259b2;stroke:#b259b2;" x="177.593594" xlink:href="#mdb53961e10" y="92.283687"/>
     <use style="fill:#b259b2;stroke:#b259b2;" x="202.443594" xlink:href="#mdb53961e10" y="108.174467"/>
     <use style="fill:#b259b2;stroke:#b259b2;" x="227.293594" xlink:href="#mdb53961e10" y="124.452827"/>
     <use style="fill:#b259b2;stroke:#b259b2;" x="252.143594" xlink:href="#mdb53961e10" y="147.320047"/>
     <use style="fill:#b259b2;stroke:#b259b2;" x="276.993594" xlink:href="#mdb53961e10" y="167.861787"/>
     <use style="fill:#b259b2;stroke:#b259b2;" x="301.843594" xlink:href="#mdb53961e10" y="197.705447"/>
     <use style="fill:#b259b2;stroke:#b259b2;" x="326.693594" xlink:href="#mdb53961e10" y="248.478427"/>
     <use style="fill:#b259b2;stroke:#b259b2;" x="351.543594" xlink:href="#mdb53961e10" y="321.731047"/>
    </g>
   </g>
   <g id="line2d_63">
    <path clip-path="url(#p985a01577a)" d="M 78.193594 34.921847 
L 103.043594 43.061027 
L 127.893594 55.076007 
L 152.743594 67.090987 
L 177.593594 83.756927 
L 202.443594 91.896107 
L 227.293594 107.011727 
L 252.143594 129.878947 
L 276.993594 167.861787 
L 301.843594 211.270747 
L 326.693594 246.540527 
L 351.543594 273.671127 
" style="fill:none;stroke:#ff8bff;stroke-linecap:square;stroke-width:1.5;"/>
    <defs>
     <path d="M 0 1.5 
C 0.397805 1.5 0.77937 1.341951 1.06066 1.06066 
C 1.341951 0.77937 1.5 0.397805 1.5 0 
C 1.5 -0.397805 1.341951 -0.77937 1.06066 -1.06066 
C 0.77937 -1.341951 0.397805 -1.5 0 -1.5 
C -0.397805 -1.5 -0.77937 -1.341951 -1.06066 -1.06066 
C -1.341951 -0.77937 -1.5 -0.397805 -1.5 0 
C -1.5 0.397805 -1.341951 0.77937 -1.06066 1.06066 
C -0.77937 1.341951 -0.397805 1.5 0 1.5 
z
" id="m00a1b18716" style="stroke:#ff8bff;"/>
    </defs>
    <g clip-path="url(#p985a01577a)">
     <use style="fill:#ff8bff;stroke:#ff8bff;" x="78.193594" xlink:href="#m00a1b18716" y="34.921847"/>
     <use style="fill:#ff8bff;stroke:#ff8bff;" x="103.043594" xlink:href="#m00a1b18716" y="43.061027"/>
     <use style="fill:#ff8bff;stroke:#ff8bff;" x="127.893594" xlink:href="#m00a1b18716" y="55.076007"/>
     <use style="fill:#ff8bff;stroke:#ff8bff;" x="152.743594" xlink:href="#m00a1b18716" y="67.090987"/>
     <use style="fill:#ff8bff;stroke:#ff8bff;" x="177.593594" xlink:href="#m00a1b18716" y="83.756927"/>
     <use style="fill:#ff8bff;stroke:#ff8bff;" x="202.443594" xlink:href="#m00a1b18716" y="91.896107"/>
     <use style="fill:#ff8bff;stroke:#ff8bff;" x="227.293594" xlink:href="#m00a1b18716" y="107.011727"/>
     <use style="fill:#ff8bff;stroke:#ff8bff;" x="252.143594" xlink:href="#m00a1b18716" y="129.878947"/>
     <use style="fill:#ff8bff;stroke:#ff8bff;" x="276.993594" xlink:href="#m00a1b18716" y="167.861787"/>
     <use style="fill:#ff8bff;stroke:#ff8bff;" x="301.843594" xlink:href="#m00a1b18716" y="211.270747"/>
     <use style="fill:#ff8bff;stroke:#ff8bff;" x="326.693594" xlink:href="#m00a1b18716" y="246.540527"/>
     <use style="fill:#ff8bff;stroke:#ff8bff;" x="351.543594" xlink:href="#m00a1b18716" y="273.671127"/>
    </g>
   </g>
   <g id="line2d_64">
    <path clip-path="url(#p985a01577a)" d="M 78.193594 34.921847 
L 103.043594 43.061027 
L 127.893594 55.463587 
L 152.743594 67.090987 
L 177.593594 82.206607 
L 202.443594 91.508527 
L 227.293594 107.399307 
L 252.143594 126.778307 
L 276.993594 162.823247 
L 301.843594 200.418507 
L 326.693594 241.114407 
L 351.543594 275.996607 
" style="fill:none;stroke:#1ab4ab;stroke-linecap:square;stroke-width:1.5;"/>
    <defs>
     <path d="M 0 1.5 
C 0.397805 1.5 0.77937 1.341951 1.06066 1.06066 
C 1.341951 0.77937 1.5 0.397805 1.5 0 
C 1.5 -0.397805 1.341951 -0.77937 1.06066 -1.06066 
C 0.77937 -1.341951 0.397805 -1.5 0 -1.5 
C -0.397805 -1.5 -0.77937 -1.341951 -1.06066 -1.06066 
C -1.341951 -0.77937 -1.5 -0.397805 -1.5 0 
C -1.5 0.397805 -1.341951 0.77937 -1.06066 1.06066 
C -0.77937 1.341951 -0.397805 1.5 0 1.5 
z
" id="me028598ff4" style="stroke:#1ab4ab;"/>
    </defs>
    <g clip-path="url(#p985a01577a)">
     <use style="fill:#1ab4ab;stroke:#1ab4ab;" x="78.193594" xlink:href="#me028598ff4" y="34.921847"/>
     <use style="fill:#1ab4ab;stroke:#1ab4ab;" x="103.043594" xlink:href="#me028598ff4" y="43.061027"/>
     <use style="fill:#1ab4ab;stroke:#1ab4ab;" x="127.893594" xlink:href="#me028598ff4" y="55.463587"/>
     <use style="fill:#1ab4ab;stroke:#1ab4ab;" x="152.743594" xlink:href="#me028598ff4" y="67.090987"/>
     <use style="fill:#1ab4ab;stroke:#1ab4ab;" x="177.593594" xlink:href="#me028598ff4" y="82.206607"/>
     <use style="fill:#1ab4ab;stroke:#1ab4ab;" x="202.443594" xlink:href="#me028598ff4" y="91.508527"/>
     <use style="fill:#1ab4ab;stroke:#1ab4ab;" x="227.293594" xlink:href="#me028598ff4" y="107.399307"/>
     <use style="fill:#1ab4ab;stroke:#1ab4ab;" x="252.143594" xlink:href="#me028598ff4" y="126.778307"/>
     <use style="fill:#1ab4ab;stroke:#1ab4ab;" x="276.993594" xlink:href="#me028598ff4" y="162.823247"/>
     <use style="fill:#1ab4ab;stroke:#1ab4ab;" x="301.843594" xlink:href="#me028598ff4" y="200.418507"/>
     <use style="fill:#1ab4ab;stroke:#1ab4ab;" x="326.693594" xlink:href="#me028598ff4" y="241.114407"/>
     <use style="fill:#1ab4ab;stroke:#1ab4ab;" x="351.543594" xlink:href="#me028598ff4" y="275.996607"/>
    </g>
   </g>
   <g id="line2d_65">
    <path clip-path="url(#p985a01577a)" d="M 78.193594 33.759107 
L 103.043594 44.223767 
L 127.893594 53.913267 
L 152.743594 67.866147 
L 177.593594 79.493547 
L 202.443594 94.996747 
L 227.293594 110.112367 
L 252.143594 146.157307 
L 276.993594 212.433487 
" style="fill:none;stroke:#6482e5;stroke-linecap:square;stroke-width:1.5;"/>
    <defs>
     <path d="M 0 1.5 
C 0.397805 1.5 0.77937 1.341951 1.06066 1.06066 
C 1.341951 0.77937 1.5 0.397805 1.5 0 
C 1.5 -0.397805 1.341951 -0.77937 1.06066 -1.06066 
C 0.77937 -1.341951 0.397805 -1.5 0 -1.5 
C -0.397805 -1.5 -0.77937 -1.341951 -1.06066 -1.06066 
C -1.341951 -0.77937 -1.5 -0.397805 -1.5 0 
C -1.5 0.397805 -1.341951 0.77937 -1.06066 1.06066 
C -0.77937 1.341951 -0.397805 1.5 0 1.5 
z
" id="ma23eca0937" style="stroke:#6482e5;"/>
    </defs>
    <g clip-path="url(#p985a01577a)">
     <use style="fill:#6482e5;stroke:#6482e5;" x="78.193594" xlink:href="#ma23eca0937" y="33.759107"/>
     <use style="fill:#6482e5;stroke:#6482e5;" x="103.043594" xlink:href="#ma23eca0937" y="44.223767"/>
     <use style="fill:#6482e5;stroke:#6482e5;" x="127.893594" xlink:href="#ma23eca0937" y="53.913267"/>
     <use style="fill:#6482e5;stroke:#6482e5;" x="152.743594" xlink:href="#ma23eca0937" y="67.866147"/>
     <use style="fill:#6482e5;stroke:#6482e5;" x="177.593594" xlink:href="#ma23eca0937" y="79.493547"/>
     <use style="fill:#6482e5;stroke:#6482e5;" x="202.443594" xlink:href="#ma23eca0937" y="94.996747"/>
     <use style="fill:#6482e5;stroke:#6482e5;" x="227.293594" xlink:href="#ma23eca0937" y="110.112367"/>
     <use style="fill:#6482e5;stroke:#6482e5;" x="252.143594" xlink:href="#ma23eca0937" y="146.157307"/>
     <use style="fill:#6482e5;stroke:#6482e5;" x="276.993594" xlink:href="#ma23eca0937" y="212.433487"/>
    </g>
   </g>
   <g id="line2d_66">
    <path clip-path="url(#p985a01577a)" d="M 78.193594 59.339387 
L 103.043594 77.943227 
L 127.893594 89.570627 
L 152.743594 102.360767 
L 177.593594 112.437847 
L 202.443594 122.127347 
L 227.293594 131.429267 
L 252.143594 144.994567 
L 276.993594 161.660507 
L 301.843594 250.803907 
" style="fill:none;stroke:#8257ac;stroke-linecap:square;stroke-width:1.5;"/>
    <defs>
     <path d="M 0 1.5 
C 0.397805 1.5 0.77937 1.341951 1.06066 1.06066 
C 1.341951 0.77937 1.5 0.397805 1.5 0 
C 1.5 -0.397805 1.341951 -0.77937 1.06066 -1.06066 
C 0.77937 -1.341951 0.397805 -1.5 0 -1.5 
C -0.397805 -1.5 -0.77937 -1.341951 -1.06066 -1.06066 
C -1.341951 -0.77937 -1.5 -0.397805 -1.5 0 
C -1.5 0.397805 -1.341951 0.77937 -1.06066 1.06066 
C -0.77937 1.341951 -0.397805 1.5 0 1.5 
z
" id="m8cb68695bb" style="stroke:#8257ac;"/>
    </defs>
    <g clip-path="url(#p985a01577a)">
     <use style="fill:#8257ac;stroke:#8257ac;" x="78.193594" xlink:href="#m8cb68695bb" y="59.339387"/>
     <use style="fill:#8257ac;stroke:#8257ac;" x="103.043594" xlink:href="#m8cb68695bb" y="77.943227"/>
     <use style="fill:#8257ac;stroke:#8257ac;" x="127.893594" xlink:href="#m8cb68695bb" y="89.570627"/>
     <use style="fill:#8257ac;stroke:#8257ac;" x="152.743594" xlink:href="#m8cb68695bb" y="102.360767"/>
     <use style="fill:#8257ac;stroke:#8257ac;" x="177.593594" xlink:href="#m8cb68695bb" y="112.437847"/>
     <use style="fill:#8257ac;stroke:#8257ac;" x="202.443594" xlink:href="#m8cb68695bb" y="122.127347"/>
     <use style="fill:#8257ac;stroke:#8257ac;" x="227.293594" xlink:href="#m8cb68695bb" y="131.429267"/>
     <use style="fill:#8257ac;stroke:#8257ac;" x="252.143594" xlink:href="#m8cb68695bb" y="144.994567"/>
     <use style="fill:#8257ac;stroke:#8257ac;" x="276.993594" xlink:href="#m8cb68695bb" y="161.660507"/>
     <use style="fill:#8257ac;stroke:#8257ac;" x="301.843594" xlink:href="#m8cb68695bb" y="250.803907"/>
    </g>
   </g>
   <g id="line2d_67">
    <path clip-path="url(#p985a01577a)" d="M 78.193594 33.759107 
L 103.043594 41.510707 
L 127.893594 50.037467 
L 152.743594 58.951807 
L 177.593594 67.478567 
L 202.443594 74.067427 
L 227.293594 82.981767 
L 252.143594 96.934647 
L 276.993594 118.639127 
L 301.843594 145.382147 
L 326.693594 176.776127 
L 351.543594 209.332847 
" style="fill:none;stroke:#008000;stroke-linecap:square;stroke-width:2;"/>
    <defs>
     <path d="M 0 2.25 
C 0.596707 2.25 1.169055 2.012926 1.59099 1.59099 
C 2.012926 1.169055 2.25 0.596707 2.25 0 
C 2.25 -0.596707 2.012926 -1.169055 1.59099 -1.59099 
C 1.169055 -2.012926 0.596707 -2.25 0 -2.25 
C -0.596707 -2.25 -1.169055 -2.012926 -1.59099 -1.59099 
C -2.012926 -1.169055 -2.25 -0.596707 -2.25 0 
C -2.25 0.596707 -2.012926 1.169055 -1.59099 1.59099 
C -1.169055 2.012926 -0.596707 2.25 0 2.25 
z
" id="mec481762bf" style="stroke:#008000;"/>
    </defs>
    <g clip-path="url(#p985a01577a)">
     <use style="fill:#008000;stroke:#008000;" x="78.193594" xlink:href="#mec481762bf" y="33.759107"/>
     <use style="fill:#008000;stroke:#008000;" x="103.043594" xlink:href="#mec481762bf" y="41.510707"/>
     <use style="fill:#008000;stroke:#008000;" x="127.893594" xlink:href="#mec481762bf" y="50.037467"/>
     <use style="fill:#008000;stroke:#008000;" x="152.743594" xlink:href="#mec481762bf" y="58.951807"/>
     <use style="fill:#008000;stroke:#008000;" x="177.593594" xlink:href="#mec481762bf" y="67.478567"/>
     <use style="fill:#008000;stroke:#008000;" x="202.443594" xlink:href="#mec481762bf" y="74.067427"/>
     <use style="fill:#008000;stroke:#008000;" x="227.293594" xlink:href="#mec481762bf" y="82.981767"/>
     <use style="fill:#008000;stroke:#008000;" x="252.143594" xlink:href="#mec481762bf" y="96.934647"/>
     <use style="fill:#008000;stroke:#008000;" x="276.993594" xlink:href="#mec481762bf" y="118.639127"/>
     <use style="fill:#008000;stroke:#008000;" x="301.843594" xlink:href="#mec481762bf" y="145.382147"/>
     <use style="fill:#008000;stroke:#008000;" x="326.693594" xlink:href="#mec481762bf" y="176.776127"/>
     <use style="fill:#008000;stroke:#008000;" x="351.543594" xlink:href="#mec481762bf" y="209.332847"/>
    </g>
   </g>
   <g id="line2d_68">
    <path clip-path="url(#p985a01577a)" d="M 0 0 
" style="fill:none;stroke:#ffffff;stroke-linecap:square;stroke-opacity:0.1;stroke-width:2.5;"/>
   </g>
   <g id="patch_3">
    <path d="M 53.343594 412.037187 
L 53.343594 24.457187 
" style="fill:none;stroke:#000000;stroke-linecap:square;stroke-linejoin:miter;stroke-width:2;"/>
   </g>
   <g id="patch_4">
    <path d="M 525.493594 412.037187 
L 525.493594 24.457187 
" style="fill:none;stroke:#000000;stroke-linecap:square;stroke-linejoin:miter;stroke-width:2;"/>
   </g>
   <g id="patch_5">
    <path d="M 53.343594 412.037187 
L 525.493594 412.037187 
" style="fill:none;stroke:#000000;stroke-linecap:square;stroke-linejoin:miter;stroke-width:2;"/>
   </g>
   <g id="patch_6">
    <path d="M 53.343594 24.457187 
L 525.493594 24.457187 
" style="fill:none;stroke:#000000;stroke-linecap:square;stroke-linejoin:miter;stroke-width:2;"/>
   </g>
   <g id="text_15">
    <!-- ACC -->
    <g transform="translate(53.343594 18.457187)scale(0.17 -0.17)">
     <use xlink:href="#TimesNewRomanPS-BoldMT-65"/>
     <use x="72.216797" xlink:href="#TimesNewRomanPS-BoldMT-67"/>
     <use x="144.433594" xlink:href="#TimesNewRomanPS-BoldMT-67"/>
    </g>
   </g>
   <g id="legend_1">
    <g id="line2d_69">
     <path d="M 65.043594 314.283281 
L 91.043594 314.283281 
" style="fill:none;stroke:#008000;stroke-linecap:square;stroke-width:2;"/>
    </g>
    <g id="line2d_70">
     <g>
      <use style="fill:#008000;stroke:#008000;" x="78.043594" xlink:href="#mec481762bf" y="314.283281"/>
     </g>
    </g>
    <g id="text_16">
     <!-- MME-NMME -->
     <g transform="translate(101.443594 318.833281)scale(0.13 -0.13)">
      <defs>
       <path d="M 47.65625 22.5625 
L 65.625 66.21875 
L 92.578125 66.21875 
L 92.578125 64.40625 
L 90.4375 64.40625 
Q 87.5 64.40625 85.75 63.375 
Q 84.515625 62.703125 83.796875 61.078125 
Q 83.25 59.90625 83.25 54.984375 
L 83.25 11.328125 
Q 83.25 6.25 83.78125 4.984375 
Q 84.328125 3.71875 85.984375 2.765625 
Q 87.640625 1.8125 90.4375 1.8125 
L 92.578125 1.8125 
L 92.578125 0 
L 58.015625 0 
L 58.015625 1.8125 
L 60.15625 1.8125 
Q 63.09375 1.8125 64.84375 2.828125 
Q 66.0625 3.515625 66.796875 5.171875 
Q 67.328125 6.34375 67.328125 11.328125 
L 67.328125 60.40625 
L 41.9375 0 
L 40.765625 0 
L 14.984375 59.96875 
L 14.984375 13.328125 
Q 14.984375 8.453125 15.234375 7.328125 
Q 15.875 4.890625 18 3.34375 
Q 20.125 1.8125 24.65625 1.8125 
L 24.65625 0 
L 2 0 
L 2 1.8125 
L 2.6875 1.8125 
Q 4.890625 1.765625 6.78125 2.515625 
Q 8.6875 3.265625 9.65625 4.53125 
Q 10.640625 5.8125 11.1875 8.109375 
Q 11.28125 8.640625 11.28125 13.09375 
L 11.28125 54.984375 
Q 11.28125 60.015625 10.734375 61.25 
Q 10.203125 62.5 8.546875 63.453125 
Q 6.890625 64.40625 4.109375 64.40625 
L 2 64.40625 
L 2 66.21875 
L 29.046875 66.21875 
z
" id="TimesNewRomanPS-BoldMT-77"/>
       <path d="M 27.25 62.40625 
L 27.25 35.453125 
L 28.5625 35.453125 
Q 34.859375 35.453125 37.6875 39.40625 
Q 40.53125 43.359375 41.3125 51.078125 
L 43.171875 51.078125 
L 43.171875 16.40625 
L 41.3125 16.40625 
Q 40.71875 22.078125 38.84375 25.6875 
Q 36.96875 29.296875 34.46875 30.53125 
Q 31.984375 31.78125 27.25 31.78125 
L 27.25 13.140625 
Q 27.25 7.671875 27.703125 6.4375 
Q 28.171875 5.21875 29.4375 4.4375 
Q 30.71875 3.65625 33.546875 3.65625 
L 37.5 3.65625 
Q 46.78125 3.65625 52.359375 7.953125 
Q 57.953125 12.25 60.40625 21.046875 
L 62.203125 21.046875 
L 59.234375 0 
L 2 0 
L 2 1.8125 
L 4.203125 1.8125 
Q 7.078125 1.8125 8.84375 2.828125 
Q 10.109375 3.515625 10.796875 5.171875 
Q 11.328125 6.34375 11.328125 11.328125 
L 11.328125 54.890625 
Q 11.328125 59.375 11.078125 60.40625 
Q 10.59375 62.109375 9.28125 63.03125 
Q 7.421875 64.40625 4.203125 64.40625 
L 2 64.40625 
L 2 66.21875 
L 57.421875 66.21875 
L 57.421875 46.625 
L 55.5625 46.625 
Q 54.15625 53.8125 51.59375 56.9375 
Q 49.03125 60.0625 44.34375 61.53125 
Q 41.609375 62.40625 34.078125 62.40625 
z
" id="TimesNewRomanPS-BoldMT-69"/>
       <path d="M 30.90625 17.921875 
L 2.4375 17.921875 
L 2.4375 28.03125 
L 30.90625 28.03125 
z
" id="TimesNewRomanPS-BoldMT-45"/>
       <path d="M 24.90625 66.21875 
L 57.5625 25.140625 
L 57.5625 53.609375 
Q 57.5625 59.578125 55.859375 61.671875 
Q 53.515625 64.5 48 64.40625 
L 48 66.21875 
L 69.875 66.21875 
L 69.875 64.40625 
Q 65.671875 63.875 64.234375 63.015625 
Q 62.796875 62.15625 61.984375 60.21875 
Q 61.1875 58.296875 61.1875 53.609375 
L 61.1875 -1.515625 
L 59.515625 -1.515625 
L 14.75 53.609375 
L 14.75 11.53125 
Q 14.75 5.8125 17.359375 3.8125 
Q 19.96875 1.8125 23.34375 1.8125 
L 24.90625 1.8125 
L 24.90625 0 
L 1.421875 0 
L 1.421875 1.8125 
Q 6.890625 1.859375 9.03125 4.046875 
Q 11.1875 6.25 11.1875 11.53125 
L 11.1875 58.25 
L 9.765625 60.015625 
Q 7.671875 62.640625 6.046875 63.46875 
Q 4.4375 64.3125 1.421875 64.40625 
L 1.421875 66.21875 
z
" id="TimesNewRomanPS-BoldMT-78"/>
      </defs>
      <use xlink:href="#TimesNewRomanPS-BoldMT-77"/>
      <use x="94.384766" xlink:href="#TimesNewRomanPS-BoldMT-77"/>
      <use x="188.769531" xlink:href="#TimesNewRomanPS-BoldMT-69"/>
      <use x="255.46875" xlink:href="#TimesNewRomanPS-BoldMT-45"/>
      <use x="288.769531" xlink:href="#TimesNewRomanPS-BoldMT-78"/>
      <use x="360.986328" xlink:href="#TimesNewRomanPS-BoldMT-77"/>
      <use x="455.371094" xlink:href="#TimesNewRomanPS-BoldMT-77"/>
      <use x="549.755859" xlink:href="#TimesNewRomanPS-BoldMT-69"/>
     </g>
    </g>
    <g id="line2d_71">
     <path d="M 65.043594 333.964062 
L 91.043594 333.964062 
" style="fill:none;stroke:#ffe200;stroke-linecap:square;stroke-width:1.5;"/>
    </g>
    <g id="line2d_72">
     <g>
      <use style="fill:#ffe200;stroke:#ffe200;" x="78.043594" xlink:href="#m5caabff77d" y="333.964062"/>
     </g>
    </g>
    <g id="text_17">
     <!-- CanCM3 -->
     <g transform="translate(101.443594 338.514062)scale(0.13 -0.13)">
      <use xlink:href="#TimesNewRomanPS-BoldMT-67"/>
      <use x="72.216797" xlink:href="#TimesNewRomanPS-BoldMT-97"/>
      <use x="122.216797" xlink:href="#TimesNewRomanPS-BoldMT-110"/>
      <use x="177.832031" xlink:href="#TimesNewRomanPS-BoldMT-67"/>
      <use x="250.048828" xlink:href="#TimesNewRomanPS-BoldMT-77"/>
      <use x="344.433594" xlink:href="#TimesNewRomanPS-BoldMT-51"/>
     </g>
    </g>
    <g id="line2d_73">
     <path d="M 65.043594 353.644844 
L 91.043594 353.644844 
" style="fill:none;stroke:#ff4300;stroke-linecap:square;stroke-width:1.5;"/>
    </g>
    <g id="line2d_74">
     <g>
      <use style="fill:#ff4300;stroke:#ff4300;" x="78.043594" xlink:href="#mc202c08e6a" y="353.644844"/>
     </g>
    </g>
    <g id="text_18">
     <!-- CanCM4 -->
     <g transform="translate(101.443594 358.194844)scale(0.13 -0.13)">
      <use xlink:href="#TimesNewRomanPS-BoldMT-67"/>
      <use x="72.216797" xlink:href="#TimesNewRomanPS-BoldMT-97"/>
      <use x="122.216797" xlink:href="#TimesNewRomanPS-BoldMT-110"/>
      <use x="177.832031" xlink:href="#TimesNewRomanPS-BoldMT-67"/>
      <use x="250.048828" xlink:href="#TimesNewRomanPS-BoldMT-77"/>
      <use x="344.433594" xlink:href="#TimesNewRomanPS-BoldMT-52"/>
     </g>
    </g>
    <g id="line2d_75">
     <path d="M 65.043594 373.325625 
L 91.043594 373.325625 
" style="fill:none;stroke:#c9a06b;stroke-linecap:square;stroke-width:1.5;"/>
    </g>
    <g id="line2d_76">
     <g>
      <use style="fill:#c9a06b;stroke:#c9a06b;" x="78.043594" xlink:href="#mb90b366873" y="373.325625"/>
     </g>
    </g>
    <g id="text_19">
     <!-- CCSM4 -->
     <g transform="translate(101.443594 377.875625)scale(0.13 -0.13)">
      <defs>
       <path d="M 46.96875 67.71875 
L 47.515625 45.65625 
L 45.515625 45.65625 
Q 44.09375 53.953125 38.546875 59 
Q 33.015625 64.0625 26.5625 64.0625 
Q 21.578125 64.0625 18.671875 61.390625 
Q 15.765625 58.734375 15.765625 55.28125 
Q 15.765625 53.078125 16.796875 51.375 
Q 18.21875 49.078125 21.34375 46.828125 
Q 23.640625 45.21875 31.9375 41.109375 
Q 43.5625 35.40625 47.609375 30.328125 
Q 51.609375 25.25 51.609375 18.703125 
Q 51.609375 10.40625 45.140625 4.421875 
Q 38.671875 -1.5625 28.71875 -1.5625 
Q 25.59375 -1.5625 22.796875 -0.921875 
Q 20.015625 -0.296875 15.828125 1.46875 
Q 13.484375 2.4375 11.96875 2.4375 
Q 10.6875 2.4375 9.265625 1.453125 
Q 7.859375 0.484375 6.984375 -1.515625 
L 5.171875 -1.515625 
L 5.171875 23.484375 
L 6.984375 23.484375 
Q 9.125 12.9375 15.25 7.390625 
Q 21.390625 1.859375 28.46875 1.859375 
Q 33.9375 1.859375 37.1875 4.828125 
Q 40.4375 7.8125 40.4375 11.765625 
Q 40.4375 14.109375 39.1875 16.296875 
Q 37.9375 18.5 35.390625 20.484375 
Q 32.859375 22.46875 26.421875 25.640625 
Q 17.390625 30.078125 13.421875 33.203125 
Q 9.46875 36.328125 7.34375 40.1875 
Q 5.21875 44.046875 5.21875 48.6875 
Q 5.21875 56.59375 11.03125 62.15625 
Q 16.84375 67.71875 25.6875 67.71875 
Q 28.90625 67.71875 31.9375 66.9375 
Q 34.234375 66.359375 37.53125 64.765625 
Q 40.828125 63.1875 42.140625 63.1875 
Q 43.40625 63.1875 44.140625 63.96875 
Q 44.875 64.75 45.515625 67.71875 
z
" id="TimesNewRomanPS-BoldMT-83"/>
      </defs>
      <use xlink:href="#TimesNewRomanPS-BoldMT-67"/>
      <use x="72.216797" xlink:href="#TimesNewRomanPS-BoldMT-67"/>
      <use x="144.433594" xlink:href="#TimesNewRomanPS-BoldMT-83"/>
      <use x="200.048828" xlink:href="#TimesNewRomanPS-BoldMT-77"/>
      <use x="294.433594" xlink:href="#TimesNewRomanPS-BoldMT-52"/>
     </g>
    </g>
    <g id="line2d_77">
     <path d="M 65.043594 393.006406 
L 91.043594 393.006406 
" style="fill:none;stroke:#ffffff;stroke-linecap:square;stroke-opacity:0.1;stroke-width:2.5;"/>
    </g>
    <g id="line2d_78"/>
    <g id="text_20">
     <!--   -->
     <g transform="translate(101.443594 397.556406)scale(0.13 -0.13)">
      <use xlink:href="#TimesNewRomanPS-BoldMT-32"/>
     </g>
    </g>
    <g id="line2d_79">
     <path d="M 207.586563 314.283281 
L 233.586563 314.283281 
" style="fill:none;stroke:#b259b2;stroke-linecap:square;stroke-width:1.5;"/>
    </g>
    <g id="line2d_80">
     <g>
      <use style="fill:#b259b2;stroke:#b259b2;" x="220.586563" xlink:href="#mdb53961e10" y="314.283281"/>
     </g>
    </g>
    <g id="text_21">
     <!-- GFDL-aer04 -->
     <g transform="translate(243.986563 318.833281)scale(0.13 -0.13)">
      <defs>
       <path d="M 69 67.71875 
L 69 44.390625 
L 67.1875 44.390625 
Q 63.921875 53.953125 57.375 58.9375 
Q 50.828125 63.921875 43.0625 63.921875 
Q 35.640625 63.921875 30.703125 59.734375 
Q 25.78125 55.5625 23.734375 48.09375 
Q 21.6875 40.625 21.6875 32.765625 
Q 21.6875 23.25 23.921875 16.0625 
Q 26.171875 8.890625 31.171875 5.515625 
Q 36.1875 2.15625 43.0625 2.15625 
Q 45.453125 2.15625 47.96875 2.65625 
Q 50.484375 3.171875 53.125 4.15625 
L 53.125 17.921875 
Q 53.125 21.828125 52.578125 22.96875 
Q 52.046875 24.125 50.359375 25.046875 
Q 48.6875 25.984375 46.296875 25.984375 
L 44.578125 25.984375 
L 44.578125 27.78125 
L 76.765625 27.78125 
L 76.765625 25.984375 
Q 73.09375 25.734375 71.65625 24.96875 
Q 70.21875 24.21875 69.4375 22.46875 
Q 69 21.53125 69 17.921875 
L 69 4.15625 
Q 62.640625 1.3125 55.78125 -0.125 
Q 48.921875 -1.5625 41.546875 -1.5625 
Q 32.125 -1.5625 25.890625 1 
Q 19.671875 3.5625 14.90625 7.734375 
Q 10.15625 11.921875 7.46875 17.140625 
Q 4.046875 23.875 4.046875 32.234375 
Q 4.046875 47.171875 14.546875 57.46875 
Q 25.046875 67.78125 40.96875 67.78125 
Q 45.90625 67.78125 49.859375 67 
Q 52 66.609375 56.8125 64.765625 
Q 61.625 62.9375 62.5 62.9375 
Q 63.875 62.9375 65.046875 63.9375 
Q 66.21875 64.9375 67.1875 67.71875 
z
" id="TimesNewRomanPS-BoldMT-71"/>
       <path d="M 27.484375 62.40625 
L 27.484375 35.203125 
L 29.390625 35.203125 
Q 33.796875 35.203125 36.578125 36.515625 
Q 39.359375 37.84375 41.28125 40.96875 
Q 43.21875 44.09375 43.796875 49.421875 
L 45.515625 49.421875 
L 45.515625 16.15625 
L 43.796875 16.15625 
Q 42.875 25.59375 38.75 28.59375 
Q 34.625 31.59375 29.390625 31.59375 
L 27.484375 31.59375 
L 27.484375 11.328125 
Q 27.484375 6.25 28.046875 4.984375 
Q 28.609375 3.71875 30.25 2.765625 
Q 31.890625 1.8125 34.671875 1.8125 
L 36.859375 1.8125 
L 36.859375 0 
L 2.25 0 
L 2.25 1.8125 
L 4.4375 1.8125 
Q 7.328125 1.8125 9.078125 2.828125 
Q 10.359375 3.515625 11.03125 5.171875 
Q 11.578125 6.34375 11.578125 11.328125 
L 11.578125 54.890625 
Q 11.578125 59.96875 11.03125 61.234375 
Q 10.5 62.5 8.859375 63.453125 
Q 7.234375 64.40625 4.4375 64.40625 
L 2.25 64.40625 
L 2.25 66.21875 
L 58.109375 66.21875 
L 58.109375 47.21875 
L 56.109375 47.21875 
Q 55.421875 53.90625 52.609375 57.125 
Q 49.8125 60.359375 44.484375 61.671875 
Q 41.546875 62.40625 33.640625 62.40625 
z
" id="TimesNewRomanPS-BoldMT-70"/>
       <path d="M 1.3125 0 
L 1.3125 1.8125 
L 3.515625 1.8125 
Q 6.390625 1.8125 7.921875 2.703125 
Q 9.46875 3.609375 10.203125 5.171875 
Q 10.640625 6.203125 10.640625 11.328125 
L 10.640625 54.890625 
Q 10.640625 59.96875 10.109375 61.234375 
Q 9.578125 62.5 7.9375 63.453125 
Q 6.296875 64.40625 3.515625 64.40625 
L 1.3125 64.40625 
L 1.3125 66.21875 
L 30.953125 66.21875 
Q 42.828125 66.21875 50.046875 62.984375 
Q 58.890625 59.03125 63.453125 51.015625 
Q 68.015625 43.015625 68.015625 32.90625 
Q 68.015625 25.921875 65.765625 20.03125 
Q 63.53125 14.15625 59.953125 10.328125 
Q 56.390625 6.5 51.734375 4.171875 
Q 47.078125 1.859375 40.328125 0.59375 
Q 37.359375 0 30.953125 0 
z
M 26.5625 62.453125 
L 26.5625 10.796875 
Q 26.5625 6.6875 26.953125 5.75 
Q 27.34375 4.828125 28.265625 4.34375 
Q 29.59375 3.609375 32.078125 3.609375 
Q 40.234375 3.609375 44.53125 9.1875 
Q 50.390625 16.703125 50.390625 32.515625 
Q 50.390625 45.265625 46.390625 52.875 
Q 43.21875 58.84375 38.234375 60.984375 
Q 34.71875 62.5 26.5625 62.453125 
z
" id="TimesNewRomanPS-BoldMT-68"/>
       <path d="M 22.3125 45.65625 
L 22.3125 35.296875 
Q 26.859375 42.390625 30.265625 44.703125 
Q 33.6875 47.015625 36.859375 47.015625 
Q 39.59375 47.015625 41.234375 45.328125 
Q 42.875 43.65625 42.875 40.578125 
Q 42.875 37.3125 41.28125 35.5 
Q 39.703125 33.6875 37.453125 33.6875 
Q 34.859375 33.6875 32.953125 35.34375 
Q 31.0625 37.015625 30.71875 37.203125 
Q 30.21875 37.5 29.59375 37.5 
Q 28.171875 37.5 26.90625 36.421875 
Q 24.90625 34.765625 23.875 31.6875 
Q 22.3125 26.953125 22.3125 21.234375 
L 22.3125 10.75 
L 22.359375 8.015625 
Q 22.359375 5.21875 22.703125 4.4375 
Q 23.296875 3.125 24.4375 2.515625 
Q 25.59375 1.90625 28.328125 1.765625 
L 28.328125 0 
L 3.65625 0 
L 3.65625 1.765625 
Q 6.640625 2 7.6875 3.390625 
Q 8.734375 4.78125 8.734375 10.75 
L 8.734375 35.984375 
Q 8.734375 39.890625 8.34375 40.96875 
Q 7.859375 42.328125 6.921875 42.96875 
Q 6 43.609375 3.65625 43.84375 
L 3.65625 45.65625 
z
" id="TimesNewRomanPS-BoldMT-114"/>
      </defs>
      <use xlink:href="#TimesNewRomanPS-BoldMT-71"/>
      <use x="77.783203" xlink:href="#TimesNewRomanPS-BoldMT-70"/>
      <use x="138.867188" xlink:href="#TimesNewRomanPS-BoldMT-68"/>
      <use x="211.083984" xlink:href="#TimesNewRomanPS-BoldMT-76"/>
      <use x="277.783203" xlink:href="#TimesNewRomanPS-BoldMT-45"/>
      <use x="311.083984" xlink:href="#TimesNewRomanPS-BoldMT-97"/>
      <use x="361.083984" xlink:href="#TimesNewRomanPS-BoldMT-101"/>
      <use x="405.46875" xlink:href="#TimesNewRomanPS-BoldMT-114"/>
      <use x="449.853516" xlink:href="#TimesNewRomanPS-BoldMT-48"/>
      <use x="499.853516" xlink:href="#TimesNewRomanPS-BoldMT-52"/>
     </g>
    </g>
    <g id="line2d_81">
     <path d="M 207.586563 333.964062 
L 233.586563 333.964062 
" style="fill:none;stroke:#ff8bff;stroke-linecap:square;stroke-width:1.5;"/>
    </g>
    <g id="line2d_82">
     <g>
      <use style="fill:#ff8bff;stroke:#ff8bff;" x="220.586563" xlink:href="#m00a1b18716" y="333.964062"/>
     </g>
    </g>
    <g id="text_22">
     <!-- GFDL-FLOR-A06 -->
     <g transform="translate(243.986563 338.514062)scale(0.13 -0.13)">
      <defs>
       <path d="M 38.625 67.140625 
Q 54.4375 67.71875 64.328125 57.90625 
Q 74.21875 48.09375 74.21875 33.34375 
Q 74.21875 20.75 66.84375 11.1875 
Q 57.078125 -1.515625 39.265625 -1.515625 
Q 21.390625 -1.515625 11.625 10.59375 
Q 3.90625 20.171875 3.90625 33.296875 
Q 3.90625 48.046875 13.9375 57.875 
Q 23.96875 67.71875 38.625 67.140625 
z
M 39.203125 64.015625 
Q 30.125 64.015625 25.390625 54.734375 
Q 21.53125 47.125 21.53125 32.859375 
Q 21.53125 15.921875 27.484375 7.8125 
Q 31.640625 2.15625 39.109375 2.15625 
Q 44.140625 2.15625 47.515625 4.59375 
Q 51.8125 7.71875 54.203125 14.578125 
Q 56.59375 21.4375 56.59375 32.46875 
Q 56.59375 45.609375 54.140625 52.125 
Q 51.703125 58.640625 47.921875 61.328125 
Q 44.140625 64.015625 39.203125 64.015625 
z
" id="TimesNewRomanPS-BoldMT-79"/>
       <path d="M 26.5625 30.171875 
L 26.5625 11.625 
Q 26.5625 6.25 27.21875 4.859375 
Q 27.875 3.46875 29.53125 2.640625 
Q 31.203125 1.8125 35.75 1.8125 
L 35.75 0 
L 1.859375 0 
L 1.859375 1.8125 
Q 6.453125 1.8125 8.078125 2.65625 
Q 9.71875 3.515625 10.375 4.875 
Q 11.03125 6.25 11.03125 11.625 
L 11.03125 54.59375 
Q 11.03125 59.96875 10.375 61.359375 
Q 9.71875 62.75 8.046875 63.578125 
Q 6.390625 64.40625 1.859375 64.40625 
L 1.859375 66.21875 
L 32.625 66.21875 
Q 44.625 66.21875 50.1875 64.546875 
Q 55.765625 62.890625 59.28125 58.421875 
Q 62.796875 53.953125 62.796875 47.953125 
Q 62.796875 40.625 57.515625 35.84375 
Q 54.15625 32.8125 48.09375 31.296875 
L 64.015625 8.890625 
Q 67.140625 4.546875 68.453125 3.46875 
Q 70.453125 1.953125 73.09375 1.8125 
L 73.09375 0 
L 52.25 0 
L 30.90625 30.171875 
z
M 26.5625 62.640625 
L 26.5625 33.640625 
L 29.34375 33.640625 
Q 36.140625 33.640625 39.5 34.890625 
Q 42.875 36.140625 44.796875 39.375 
Q 46.734375 42.625 46.734375 47.859375 
Q 46.734375 55.421875 43.1875 59.03125 
Q 39.65625 62.640625 31.78125 62.640625 
z
" id="TimesNewRomanPS-BoldMT-82"/>
      </defs>
      <use xlink:href="#TimesNewRomanPS-BoldMT-71"/>
      <use x="77.783203" xlink:href="#TimesNewRomanPS-BoldMT-70"/>
      <use x="138.867188" xlink:href="#TimesNewRomanPS-BoldMT-68"/>
      <use x="211.083984" xlink:href="#TimesNewRomanPS-BoldMT-76"/>
      <use x="277.783203" xlink:href="#TimesNewRomanPS-BoldMT-45"/>
      <use x="311.083984" xlink:href="#TimesNewRomanPS-BoldMT-70"/>
      <use x="372.167969" xlink:href="#TimesNewRomanPS-BoldMT-76"/>
      <use x="438.867188" xlink:href="#TimesNewRomanPS-BoldMT-79"/>
      <use x="516.650391" xlink:href="#TimesNewRomanPS-BoldMT-82"/>
      <use x="588.867188" xlink:href="#TimesNewRomanPS-BoldMT-45"/>
      <use x="622.167969" xlink:href="#TimesNewRomanPS-BoldMT-65"/>
      <use x="694.384766" xlink:href="#TimesNewRomanPS-BoldMT-48"/>
      <use x="744.384766" xlink:href="#TimesNewRomanPS-BoldMT-54"/>
     </g>
    </g>
    <g id="line2d_83">
     <path d="M 207.586563 353.644844 
L 233.586563 353.644844 
" style="fill:none;stroke:#1ab4ab;stroke-linecap:square;stroke-width:1.5;"/>
    </g>
    <g id="line2d_84">
     <g>
      <use style="fill:#1ab4ab;stroke:#1ab4ab;" x="220.586563" xlink:href="#me028598ff4" y="353.644844"/>
     </g>
    </g>
    <g id="text_23">
     <!-- GFDL-FLOR-B01 -->
     <g transform="translate(243.986563 358.194844)scale(0.13 -0.13)">
      <defs>
       <path d="M 44.484375 35.109375 
Q 53.90625 32.90625 57.71875 29.78125 
Q 63.1875 25.34375 63.1875 18.265625 
Q 63.1875 10.796875 57.171875 5.90625 
Q 49.8125 0 35.75 0 
L 2.09375 0 
L 2.09375 1.8125 
Q 6.6875 1.8125 8.328125 2.65625 
Q 9.96875 3.515625 10.625 4.875 
Q 11.28125 6.25 11.28125 11.625 
L 11.28125 54.59375 
Q 11.28125 59.96875 10.625 61.359375 
Q 9.96875 62.75 8.296875 63.578125 
Q 6.640625 64.40625 2.09375 64.40625 
L 2.09375 66.21875 
L 33.84375 66.21875 
Q 45.21875 66.21875 49.953125 64.1875 
Q 54.6875 62.15625 57.421875 58.125 
Q 60.15625 54.109375 60.15625 49.5625 
Q 60.15625 44.78125 56.6875 41.046875 
Q 53.21875 37.3125 44.484375 35.109375 
z
M 26.703125 36.421875 
Q 33.640625 36.421875 36.9375 37.984375 
Q 40.234375 39.546875 41.984375 42.375 
Q 43.75 45.21875 43.75 49.609375 
Q 43.75 54 42.015625 56.8125 
Q 40.28125 59.625 37.0625 61.078125 
Q 33.84375 62.546875 26.703125 62.5 
z
M 26.703125 32.625 
L 26.703125 11.375 
L 26.65625 8.9375 
Q 26.65625 6.296875 28 4.953125 
Q 29.34375 3.609375 31.984375 3.609375 
Q 35.890625 3.609375 39.1875 5.34375 
Q 42.484375 7.078125 44.234375 10.375 
Q 46 13.671875 46 17.71875 
Q 46 22.359375 43.84375 26.046875 
Q 41.703125 29.734375 37.9375 31.203125 
Q 34.1875 32.671875 26.703125 32.625 
z
" id="TimesNewRomanPS-BoldMT-66"/>
      </defs>
      <use xlink:href="#TimesNewRomanPS-BoldMT-71"/>
      <use x="77.783203" xlink:href="#TimesNewRomanPS-BoldMT-70"/>
      <use x="138.867188" xlink:href="#TimesNewRomanPS-BoldMT-68"/>
      <use x="211.083984" xlink:href="#TimesNewRomanPS-BoldMT-76"/>
      <use x="277.783203" xlink:href="#TimesNewRomanPS-BoldMT-45"/>
      <use x="311.083984" xlink:href="#TimesNewRomanPS-BoldMT-70"/>
      <use x="372.167969" xlink:href="#TimesNewRomanPS-BoldMT-76"/>
      <use x="438.867188" xlink:href="#TimesNewRomanPS-BoldMT-79"/>
      <use x="516.650391" xlink:href="#TimesNewRomanPS-BoldMT-82"/>
      <use x="588.867188" xlink:href="#TimesNewRomanPS-BoldMT-45"/>
      <use x="622.167969" xlink:href="#TimesNewRomanPS-BoldMT-66"/>
      <use x="688.867188" xlink:href="#TimesNewRomanPS-BoldMT-48"/>
      <use x="738.867188" xlink:href="#TimesNewRomanPS-BoldMT-49"/>
     </g>
    </g>
    <g id="line2d_85">
     <path d="M 207.586563 373.325625 
L 233.586563 373.325625 
" style="fill:none;stroke:#6482e5;stroke-linecap:square;stroke-width:1.5;"/>
    </g>
    <g id="line2d_86">
     <g>
      <use style="fill:#6482e5;stroke:#6482e5;" x="220.586563" xlink:href="#ma23eca0937" y="373.325625"/>
     </g>
    </g>
    <g id="text_24">
     <!-- NASA-GAMO -->
     <g transform="translate(243.986563 377.875625)scale(0.13 -0.13)">
      <use xlink:href="#TimesNewRomanPS-BoldMT-78"/>
      <use x="72.216797" xlink:href="#TimesNewRomanPS-BoldMT-65"/>
      <use x="144.433594" xlink:href="#TimesNewRomanPS-BoldMT-83"/>
      <use x="200.048828" xlink:href="#TimesNewRomanPS-BoldMT-65"/>
      <use x="272.265625" xlink:href="#TimesNewRomanPS-BoldMT-45"/>
      <use x="305.566406" xlink:href="#TimesNewRomanPS-BoldMT-71"/>
      <use x="383.349609" xlink:href="#TimesNewRomanPS-BoldMT-65"/>
      <use x="455.566406" xlink:href="#TimesNewRomanPS-BoldMT-77"/>
      <use x="549.951172" xlink:href="#TimesNewRomanPS-BoldMT-79"/>
     </g>
    </g>
    <g id="line2d_87">
     <path d="M 207.586563 393.006406 
L 233.586563 393.006406 
" style="fill:none;stroke:#8257ac;stroke-linecap:square;stroke-width:1.5;"/>
    </g>
    <g id="line2d_88">
     <g>
      <use style="fill:#8257ac;stroke:#8257ac;" x="220.586563" xlink:href="#m8cb68695bb" y="393.006406"/>
     </g>
    </g>
    <g id="text_25">
     <!-- NCEP-CFSv2 -->
     <g transform="translate(243.986563 397.556406)scale(0.13 -0.13)">
      <defs>
       <path d="M 27 29.984375 
L 27 11.625 
Q 27 6.25 27.65625 4.859375 
Q 28.328125 3.46875 30 2.640625 
Q 31.6875 1.8125 36.1875 1.8125 
L 36.1875 0 
L 2.546875 0 
L 2.546875 1.8125 
Q 7.125 1.8125 8.765625 2.65625 
Q 10.40625 3.515625 11.0625 4.875 
Q 11.71875 6.25 11.71875 11.625 
L 11.71875 54.59375 
Q 11.71875 59.96875 11.0625 61.359375 
Q 10.40625 62.75 8.734375 63.578125 
Q 7.078125 64.40625 2.546875 64.40625 
L 2.546875 66.21875 
L 31.390625 66.21875 
Q 45.65625 66.21875 51.859375 61.140625 
Q 58.0625 56.0625 58.0625 48.4375 
Q 58.0625 42 54.046875 37.40625 
Q 50.046875 32.8125 43.015625 31.15625 
Q 38.28125 29.984375 27 29.984375 
z
M 27 62.40625 
L 27 33.796875 
Q 28.609375 33.6875 29.4375 33.6875 
Q 35.40625 33.6875 38.625 37.21875 
Q 41.84375 40.765625 41.84375 48.1875 
Q 41.84375 55.5625 38.625 58.984375 
Q 35.40625 62.40625 29 62.40625 
z
" id="TimesNewRomanPS-BoldMT-80"/>
       <path d="M 23.96875 -1.375 
L 8.59375 34.03125 
Q 5.8125 40.4375 4.25 42.140625 
Q 3.125 43.40625 0.921875 43.84375 
L 0.921875 45.65625 
L 25.203125 45.65625 
L 25.203125 43.84375 
Q 22.90625 43.84375 22.078125 43.015625 
Q 20.90625 41.9375 20.90625 40.484375 
Q 20.90625 38.671875 23.046875 33.6875 
L 30.5625 16.546875 
L 36.578125 31.34375 
Q 39.15625 37.703125 39.15625 40.328125 
Q 39.15625 41.84375 38.0625 42.796875 
Q 36.96875 43.75 34.1875 43.84375 
L 34.1875 45.65625 
L 49.125 45.65625 
L 49.125 43.84375 
Q 46.96875 43.5625 45.59375 42.234375 
Q 44.234375 40.921875 41.5 34.46875 
L 26.265625 -1.375 
z
" id="TimesNewRomanPS-BoldMT-118"/>
      </defs>
      <use xlink:href="#TimesNewRomanPS-BoldMT-78"/>
      <use x="72.216797" xlink:href="#TimesNewRomanPS-BoldMT-67"/>
      <use x="144.433594" xlink:href="#TimesNewRomanPS-BoldMT-69"/>
      <use x="211.132812" xlink:href="#TimesNewRomanPS-BoldMT-80"/>
      <use x="272.216797" xlink:href="#TimesNewRomanPS-BoldMT-45"/>
      <use x="305.517578" xlink:href="#TimesNewRomanPS-BoldMT-67"/>
      <use x="377.734375" xlink:href="#TimesNewRomanPS-BoldMT-70"/>
      <use x="438.818359" xlink:href="#TimesNewRomanPS-BoldMT-83"/>
      <use x="494.433594" xlink:href="#TimesNewRomanPS-BoldMT-118"/>
      <use x="544.433594" xlink:href="#TimesNewRomanPS-BoldMT-50"/>
     </g>
    </g>
   </g>
  </g>
 </g>
 <defs>
  <clipPath id="p985a01577a">
   <rect height="387.58" width="472.15" x="53.343594" y="24.457187"/>
  </clipPath>
 </defs>
</svg>
